solid OpenSCAD_Model
  facet normal -0.987688 0.156435 0
    outer loop
      vertex -49.4393 0.305212 15
      vertex -49.4393 0.305212 -15.1564
      vertex -49.4877 0 15
    endloop
  endfacet
  facet normal -0.987688 0.156435 0
    outer loop
      vertex -49.4877 0 15
      vertex -49.4393 0.305212 -15.1564
      vertex -49.4877 0 -15.1564
    endloop
  endfacet
  facet normal -0.987688 -0.156435 0
    outer loop
      vertex -49.4393 -0.305212 15
      vertex -49.4877 0 15
      vertex -49.4393 -0.305212 -15.1564
    endloop
  endfacet
  facet normal -0.987688 -0.156435 0
    outer loop
      vertex -49.4393 -0.305212 -15.1564
      vertex -49.4877 0 15
      vertex -49.4877 0 -15.1564
    endloop
  endfacet
  facet normal -0.940448 -0.148953 -0.305567
    outer loop
      vertex -49.3474 -0.275336 -15.454
      vertex -49.4393 -0.305212 -15.1564
      vertex -49.4877 0 -15.1564
    endloop
  endfacet
  facet normal -0.940448 -0.148952 -0.305567
    outer loop
      vertex -49.391 0 -15.454
      vertex -49.3474 -0.275336 -15.454
      vertex -49.4877 0 -15.1564
    endloop
  endfacet
  facet normal -0.940448 0.148953 -0.305567
    outer loop
      vertex -49.4393 0.305212 -15.1564
      vertex -49.391 0 -15.454
      vertex -49.4877 0 -15.1564
    endloop
  endfacet
  facet normal 0 0 1
    outer loop
      vertex -49.4393 -0.305212 15
      vertex -49.2991 -0.580549 15
      vertex -42.2257 -12.832 15
    endloop
  endfacet
  facet normal 0 0 1
    outer loop
      vertex -49 0 15
      vertex -49.4393 -0.305212 15
      vertex -41.75 -12.5574 15
    endloop
  endfacet
  facet normal 0 0 1
    outer loop
      vertex -41.75 -12.5574 15
      vertex -49.4393 -0.305212 15
      vertex -42.2257 -12.832 15
    endloop
  endfacet
  facet normal 0 0 1
    outer loop
      vertex -41.75 12.5574 15
      vertex -49.4393 -0.305212 15
      vertex -49 0 15
    endloop
  endfacet
  facet normal 0 0 1
    outer loop
      vertex -42.2257 12.832 15
      vertex -49.4393 -0.305212 15
      vertex -41.75 12.5574 15
    endloop
  endfacet
  facet normal 0 0 1
    outer loop
      vertex -49.2991 0.580549 15
      vertex -49.4393 -0.305212 15
      vertex -42.2257 12.832 15
    endloop
  endfacet
  facet normal 0 0 1
    outer loop
      vertex -49.4393 0.305212 15
      vertex -49.4393 -0.305212 15
      vertex -49.2991 0.580549 15
    endloop
  endfacet
  facet normal 0 0 1
    outer loop
      vertex -49.4877 0 15
      vertex -49.4393 -0.305212 15
      vertex -49.4393 0.305212 15
    endloop
  endfacet
  facet normal -0.940448 0.148952 -0.305567
    outer loop
      vertex -49.3474 0.275336 -15.454
      vertex -49.391 0 -15.454
      vertex -49.4393 0.305212 -15.1564
    endloop
  endfacet
  facet normal -0.848392 0.432273 -0.305567
    outer loop
      vertex -49.2991 0.580549 -15.1564
      vertex -49.3474 0.275336 -15.454
      vertex -49.4393 0.305212 -15.1564
    endloop
  endfacet
  facet normal -0.891008 0.453987 0
    outer loop
      vertex -49.2991 0.580549 15
      vertex -49.2991 0.580549 -15.1564
      vertex -49.4393 0.305212 15
    endloop
  endfacet
  facet normal -0.891008 0.453987 0
    outer loop
      vertex -49.4393 0.305212 15
      vertex -49.2991 0.580549 -15.1564
      vertex -49.4393 0.305212 -15.1564
    endloop
  endfacet
  facet normal -0.891008 -0.453987 0
    outer loop
      vertex -49.2991 -0.580549 15
      vertex -49.4393 -0.305212 15
      vertex -49.2991 -0.580549 -15.1564
    endloop
  endfacet
  facet normal -0.891008 -0.453987 0
    outer loop
      vertex -49.2991 -0.580549 -15.1564
      vertex -49.4393 -0.305212 15
      vertex -49.4393 -0.305212 -15.1564
    endloop
  endfacet
  facet normal -0.84839 -0.432273 -0.305573
    outer loop
      vertex -49.2208 -0.52372 -15.454
      vertex -49.2991 -0.580549 -15.1564
      vertex -49.4393 -0.305212 -15.1564
    endloop
  endfacet
  facet normal -0.848389 -0.432279 -0.305567
    outer loop
      vertex -49.3474 -0.275336 -15.454
      vertex -49.2208 -0.52372 -15.454
      vertex -49.4393 -0.305212 -15.1564
    endloop
  endfacet
  facet normal -0.723906 -0.368851 -0.583017
    outer loop
      vertex -49.0721 -0.415627 -15.7071
      vertex -49.2208 -0.52372 -15.454
      vertex -49.3474 -0.275336 -15.454
    endloop
  endfacet
  facet normal -0.723906 -0.368852 -0.583017
    outer loop
      vertex -49.1725 -0.218508 -15.7071
      vertex -49.0721 -0.415627 -15.7071
      vertex -49.3474 -0.275336 -15.454
    endloop
  endfacet
  facet normal -0.802457 -0.127097 -0.583017
    outer loop
      vertex -49.1725 -0.218508 -15.7071
      vertex -49.3474 -0.275336 -15.454
      vertex -49.391 0 -15.454
    endloop
  endfacet
  facet normal -0.802457 -0.127096 -0.583018
    outer loop
      vertex -49.2071 0 -15.7071
      vertex -49.1725 -0.218508 -15.7071
      vertex -49.391 0 -15.454
    endloop
  endfacet
  facet normal -0.802457 0.127097 -0.583018
    outer loop
      vertex -49.3474 0.275336 -15.454
      vertex -49.2071 0 -15.7071
      vertex -49.391 0 -15.454
    endloop
  endfacet
  facet normal -0.866025 0.5 0
    outer loop
      vertex -42.2257 12.832 15
      vertex -42.2257 12.832 12.5
      vertex -49.2991 0.580549 15
    endloop
  endfacet
  facet normal -0.866025 0.5 0
    outer loop
      vertex -49.2991 0.580549 15
      vertex -42.2257 12.832 12.5
      vertex -25.0491 42.5828 -15.1564
    endloop
  endfacet
  facet normal -0.866025 0.5 0
    outer loop
      vertex -25.0491 42.5828 15
      vertex -32.2257 30.1525 12.5
      vertex -32.2257 30.1525 15
    endloop
  endfacet
  facet normal -0.866025 0.5 0
    outer loop
      vertex -25.0491 42.5828 -15.1564
      vertex -32.2257 30.1525 12.5
      vertex -25.0491 42.5828 15
    endloop
  endfacet
  facet normal -0.866025 0.5 0
    outer loop
      vertex -42.2257 12.832 12.5
      vertex -32.2257 30.1525 12.5
      vertex -25.0491 42.5828 -15.1564
    endloop
  endfacet
  facet normal -0.866025 0.5 0
    outer loop
      vertex -49.2991 0.580549 15
      vertex -25.0491 42.5828 -15.1564
      vertex -49.2991 0.580549 -15.1564
    endloop
  endfacet
  facet normal 0.5 0.866025 1.36785e-16
    outer loop
      vertex -41.75 12.5574 12.5
      vertex -42.2257 12.832 12.5
      vertex -41.75 12.5574 15
    endloop
  endfacet
  facet normal 0.5 0.866025 1.36785e-16
    outer loop
      vertex -41.75 12.5574 15
      vertex -42.2257 12.832 12.5
      vertex -42.2257 12.832 15
    endloop
  endfacet
  facet normal 0.866025 -0.5 0
    outer loop
      vertex -24.5 42.4352 -15.5
      vertex -24.5 42.4352 15
      vertex -31.75 29.8779 15
    endloop
  endfacet
  facet normal 0.866025 -0.5 0
    outer loop
      vertex -41.75 12.5574 12.5
      vertex -24.5 42.4352 -15.5
      vertex -31.75 29.8779 12.5
    endloop
  endfacet
  facet normal 0.866025 -0.5 0
    outer loop
      vertex -31.75 29.8779 12.5
      vertex -24.5 42.4352 -15.5
      vertex -31.75 29.8779 15
    endloop
  endfacet
  facet normal 0.866025 -0.5 0
    outer loop
      vertex -49 0 15
      vertex -24.5 42.4352 -15.5
      vertex -41.75 12.5574 12.5
    endloop
  endfacet
  facet normal 0.866025 -0.5 0
    outer loop
      vertex -49 0 15
      vertex -41.75 12.5574 12.5
      vertex -41.75 12.5574 15
    endloop
  endfacet
  facet normal 0.866025 -0.5 0
    outer loop
      vertex -49 0 -15.5
      vertex -24.5 42.4352 -15.5
      vertex -49 0 15
    endloop
  endfacet
  facet normal 0.866025 0.5 0
    outer loop
      vertex -31.75 -29.8779 12.5
      vertex -24.5 -42.4352 -15.5
      vertex -41.75 -12.5574 12.5
    endloop
  endfacet
  facet normal 0.866025 0.5 0
    outer loop
      vertex -49 0 15
      vertex -41.75 -12.5574 15
      vertex -41.75 -12.5574 12.5
    endloop
  endfacet
  facet normal 0.866025 0.5 0
    outer loop
      vertex -24.5 -42.4352 -15.5
      vertex -49 0 15
      vertex -41.75 -12.5574 12.5
    endloop
  endfacet
  facet normal 0.866025 0.5 0
    outer loop
      vertex -31.75 -29.8779 15
      vertex -24.5 -42.4352 15
      vertex -31.75 -29.8779 12.5
    endloop
  endfacet
  facet normal 0.866025 0.5 0
    outer loop
      vertex -24.5 -42.4352 15
      vertex -24.5 -42.4352 -15.5
      vertex -31.75 -29.8779 12.5
    endloop
  endfacet
  facet normal 0.866025 0.5 0
    outer loop
      vertex -24.5 -42.4352 -15.5
      vertex -49 0 -15.5
      vertex -49 0 15
    endloop
  endfacet
  facet normal 0.5 -0.866025 1.36785e-16
    outer loop
      vertex -42.2257 -12.832 12.5
      vertex -41.75 -12.5574 12.5
      vertex -41.75 -12.5574 15
    endloop
  endfacet
  facet normal 0.5 -0.866025 1.36785e-16
    outer loop
      vertex -42.2257 -12.832 15
      vertex -42.2257 -12.832 12.5
      vertex -41.75 -12.5574 15
    endloop
  endfacet
  facet normal -0.866025 -0.5 0
    outer loop
      vertex -25.0491 -42.5828 15
      vertex -32.2257 -30.1525 15
      vertex -25.0491 -42.5828 -15.1564
    endloop
  endfacet
  facet normal -0.866025 -0.5 0
    outer loop
      vertex -25.0491 -42.5828 -15.1564
      vertex -32.2257 -30.1525 15
      vertex -32.2257 -30.1525 12.5
    endloop
  endfacet
  facet normal -0.866025 -0.5 0
    outer loop
      vertex -25.0491 -42.5828 -15.1564
      vertex -32.2257 -30.1525 12.5
      vertex -42.2257 -12.832 12.5
    endloop
  endfacet
  facet normal -0.866025 -0.5 0
    outer loop
      vertex -42.2257 -12.832 12.5
      vertex -42.2257 -12.832 15
      vertex -49.2991 -0.580549 15
    endloop
  endfacet
  facet normal -0.866025 -0.5 0
    outer loop
      vertex -42.2257 -12.832 12.5
      vertex -49.2991 -0.580549 15
      vertex -25.0491 -42.5828 -15.1564
    endloop
  endfacet
  facet normal -0.866025 -0.5 0
    outer loop
      vertex -25.0491 -42.5828 -15.1564
      vertex -49.2991 -0.580549 15
      vertex -49.2991 -0.580549 -15.1564
    endloop
  endfacet
  facet normal -0.802457 0.127096 -0.583017
    outer loop
      vertex -49.1725 0.218508 -15.7071
      vertex -49.2071 0 -15.7071
      vertex -49.3474 0.275336 -15.454
    endloop
  endfacet
  facet normal -0.723906 0.368851 -0.583017
    outer loop
      vertex -49.2208 0.52372 -15.454
      vertex -49.1725 0.218508 -15.7071
      vertex -49.3474 0.275336 -15.454
    endloop
  endfacet
  facet normal -0.848387 0.432278 -0.305573
    outer loop
      vertex -49.2991 0.580549 -15.1564
      vertex -49.2208 0.52372 -15.454
      vertex -49.3474 0.275336 -15.454
    endloop
  endfacet
  facet normal -0.824068 0.475776 -0.307488
    outer loop
      vertex -24.9708 42.526 -15.454
      vertex -49.2208 0.52372 -15.454
      vertex -25.0491 42.5828 -15.1564
    endloop
  endfacet
  facet normal -0.824068 0.475776 -0.307488
    outer loop
      vertex -25.0491 42.5828 -15.1564
      vertex -49.2208 0.52372 -15.454
      vertex -49.2991 0.580549 -15.1564
    endloop
  endfacet
  facet normal -0.824068 -0.475776 -0.307488
    outer loop
      vertex -24.9708 -42.526 -15.454
      vertex -25.0491 -42.5828 -15.1564
      vertex -49.2208 -0.52372 -15.454
    endloop
  endfacet
  facet normal -0.824068 -0.475776 -0.307488
    outer loop
      vertex -49.2208 -0.52372 -15.454
      vertex -25.0491 -42.5828 -15.1564
      vertex -49.2991 -0.580549 -15.1564
    endloop
  endfacet
  facet normal -0.701957 -0.405275 -0.58567
    outer loop
      vertex -24.8221 -42.4179 -15.7071
      vertex -24.9708 -42.526 -15.454
      vertex -49.0721 -0.415627 -15.7071
    endloop
  endfacet
  facet normal -0.701957 -0.405275 -0.58567
    outer loop
      vertex -49.0721 -0.415627 -15.7071
      vertex -24.9708 -42.526 -15.454
      vertex -49.2208 -0.52372 -15.454
    endloop
  endfacet
  facet normal -0.510868 -0.29495 -0.807477
    outer loop
      vertex -24.6173 -42.2691 -15.891
      vertex -24.8221 -42.4179 -15.7071
      vertex -48.8673 -0.266849 -15.891
    endloop
  endfacet
  facet normal -0.510868 -0.29495 -0.807477
    outer loop
      vertex -48.8673 -0.266849 -15.891
      vertex -24.8221 -42.4179 -15.7071
      vertex -49.0721 -0.415627 -15.7071
    endloop
  endfacet
  facet normal -0.527966 -0.269014 -0.805533
    outer loop
      vertex -48.8673 -0.266849 -15.891
      vertex -49.0721 -0.415627 -15.7071
      vertex -49.1725 -0.218508 -15.7071
    endloop
  endfacet
  facet normal -0.527966 -0.269014 -0.805533
    outer loop
      vertex -48.9318 -0.140291 -15.891
      vertex -48.8673 -0.266849 -15.891
      vertex -49.1725 -0.218508 -15.7071
    endloop
  endfacet
  facet normal -0.585255 -0.0926946 -0.805533
    outer loop
      vertex -48.9318 -0.140291 -15.891
      vertex -49.1725 -0.218508 -15.7071
      vertex -49.2071 0 -15.7071
    endloop
  endfacet
  facet normal -0.585254 -0.0926914 -0.805534
    outer loop
      vertex -48.954 0 -15.891
      vertex -48.9318 -0.140291 -15.891
      vertex -49.2071 0 -15.7071
    endloop
  endfacet
  facet normal -0.585254 0.0926944 -0.805534
    outer loop
      vertex -49.1725 0.218508 -15.7071
      vertex -48.954 0 -15.891
      vertex -49.2071 0 -15.7071
    endloop
  endfacet
  facet normal -0.707107 0.707107 0
    outer loop
      vertex -24.8305 42.8013 15
      vertex -24.8305 42.8013 -15.1564
      vertex -25.0491 42.5828 15
    endloop
  endfacet
  facet normal -0.707107 0.707107 0
    outer loop
      vertex -25.0491 42.5828 15
      vertex -24.8305 42.8013 -15.1564
      vertex -25.0491 42.5828 -15.1564
    endloop
  endfacet
  facet normal -0.673285 0.673285 -0.305573
    outer loop
      vertex -24.7737 42.7231 -15.454
      vertex -24.9708 42.526 -15.454
      vertex -24.8305 42.8013 -15.1564
    endloop
  endfacet
  facet normal -0.673285 0.673285 -0.305573
    outer loop
      vertex -24.8305 42.8013 -15.1564
      vertex -24.9708 42.526 -15.454
      vertex -25.0491 42.5828 -15.1564
    endloop
  endfacet
  facet normal 0 0 1
    outer loop
      vertex -10 42.9899 15
      vertex -24.5 42.4352 15
      vertex -10 42.4352 15
    endloop
  endfacet
  facet normal 0 0 1
    outer loop
      vertex -24.25 42.9899 15
      vertex -24.5 42.4352 15
      vertex -10 42.9899 15
    endloop
  endfacet
  facet normal 0 0 1
    outer loop
      vertex -31.75 29.8779 15
      vertex -24.5 42.4352 15
      vertex -24.25 42.9899 15
    endloop
  endfacet
  facet normal 0 0 1
    outer loop
      vertex -24.5552 42.9416 15
      vertex -31.75 29.8779 15
      vertex -24.25 42.9899 15
    endloop
  endfacet
  facet normal 0 0 1
    outer loop
      vertex -24.8305 42.8013 15
      vertex -31.75 29.8779 15
      vertex -24.5552 42.9416 15
    endloop
  endfacet
  facet normal 0 0 1
    outer loop
      vertex -25.0491 42.5828 15
      vertex -31.75 29.8779 15
      vertex -24.8305 42.8013 15
    endloop
  endfacet
  facet normal 0 0 1
    outer loop
      vertex -32.2257 30.1525 15
      vertex -31.75 29.8779 15
      vertex -25.0491 42.5828 15
    endloop
  endfacet
  facet normal -0.5 -0.866025 -1.36785e-16
    outer loop
      vertex -32.2257 30.1525 12.5
      vertex -31.75 29.8779 12.5
      vertex -31.75 29.8779 15
    endloop
  endfacet
  facet normal -0.5 -0.866025 -1.36785e-16
    outer loop
      vertex -32.2257 30.1525 15
      vertex -32.2257 30.1525 12.5
      vertex -31.75 29.8779 15
    endloop
  endfacet
  facet normal 1.92296e-16 -1.11022e-16 1
    outer loop
      vertex -41.75 12.5574 12.5
      vertex -31.75 29.8779 12.5
      vertex -32.2257 30.1525 12.5
    endloop
  endfacet
  facet normal 1.92296e-16 -1.11022e-16 1
    outer loop
      vertex -42.2257 12.832 12.5
      vertex -41.75 12.5574 12.5
      vertex -32.2257 30.1525 12.5
    endloop
  endfacet
  facet normal 0 0 1
    outer loop
      vertex -24.5 -42.4352 -15.5
      vertex 24.5 -42.4352 -15.5
      vertex 49 0 -15.5
    endloop
  endfacet
  facet normal 0 0 1
    outer loop
      vertex -24.5 42.4352 -15.5
      vertex -24.5 -42.4352 -15.5
      vertex 24.5 42.4352 -15.5
    endloop
  endfacet
  facet normal 0 0 1
    outer loop
      vertex 24.5 42.4352 -15.5
      vertex -24.5 -42.4352 -15.5
      vertex 49 0 -15.5
    endloop
  endfacet
  facet normal 0 0 1
    outer loop
      vertex -49 0 -15.5
      vertex -24.5 -42.4352 -15.5
      vertex -24.5 42.4352 -15.5
    endloop
  endfacet
  facet normal 0 -1 0
    outer loop
      vertex 24.5 42.4352 -15.5
      vertex 24.5 42.4352 15
      vertex 10 42.4352 15
    endloop
  endfacet
  facet normal 0 -1 0
    outer loop
      vertex -10 42.4352 12.5
      vertex 24.5 42.4352 -15.5
      vertex 10 42.4352 12.5
    endloop
  endfacet
  facet normal 0 -1 0
    outer loop
      vertex 10 42.4352 12.5
      vertex 24.5 42.4352 -15.5
      vertex 10 42.4352 15
    endloop
  endfacet
  facet normal 0 -1 0
    outer loop
      vertex -24.5 42.4352 15
      vertex 24.5 42.4352 -15.5
      vertex -10 42.4352 12.5
    endloop
  endfacet
  facet normal 0 -1 0
    outer loop
      vertex -24.5 42.4352 15
      vertex -10 42.4352 12.5
      vertex -10 42.4352 15
    endloop
  endfacet
  facet normal 0 -1 0
    outer loop
      vertex -24.5 42.4352 -15.5
      vertex 24.5 42.4352 -15.5
      vertex -24.5 42.4352 15
    endloop
  endfacet
  facet normal 0 1 0
    outer loop
      vertex -10 -42.4352 15
      vertex -10 -42.4352 12.5
      vertex -24.5 -42.4352 15
    endloop
  endfacet
  facet normal 0 1 0
    outer loop
      vertex -24.5 -42.4352 15
      vertex -10 -42.4352 12.5
      vertex 24.5 -42.4352 -15.5
    endloop
  endfacet
  facet normal 0 1 0
    outer loop
      vertex 24.5 -42.4352 15
      vertex 10 -42.4352 12.5
      vertex 10 -42.4352 15
    endloop
  endfacet
  facet normal 0 1 0
    outer loop
      vertex 24.5 -42.4352 -15.5
      vertex 10 -42.4352 12.5
      vertex 24.5 -42.4352 15
    endloop
  endfacet
  facet normal 0 1 0
    outer loop
      vertex -10 -42.4352 12.5
      vertex 10 -42.4352 12.5
      vertex 24.5 -42.4352 -15.5
    endloop
  endfacet
  facet normal 0 1 0
    outer loop
      vertex -24.5 -42.4352 15
      vertex 24.5 -42.4352 -15.5
      vertex -24.5 -42.4352 -15.5
    endloop
  endfacet
  facet normal 0 0 1
    outer loop
      vertex -25.0491 -42.5828 15
      vertex -24.8305 -42.8013 15
      vertex -24.5552 -42.9416 15
    endloop
  endfacet
  facet normal 0 0 1
    outer loop
      vertex -10 -42.9899 15
      vertex -25.0491 -42.5828 15
      vertex -24.25 -42.9899 15
    endloop
  endfacet
  facet normal 0 0 1
    outer loop
      vertex -24.25 -42.9899 15
      vertex -25.0491 -42.5828 15
      vertex -24.5552 -42.9416 15
    endloop
  endfacet
  facet normal 0 0 1
    outer loop
      vertex -10 -42.4352 15
      vertex -25.0491 -42.5828 15
      vertex -10 -42.9899 15
    endloop
  endfacet
  facet normal 0 0 1
    outer loop
      vertex -24.5 -42.4352 15
      vertex -25.0491 -42.5828 15
      vertex -10 -42.4352 15
    endloop
  endfacet
  facet normal 0 0 1
    outer loop
      vertex -31.75 -29.8779 15
      vertex -25.0491 -42.5828 15
      vertex -24.5 -42.4352 15
    endloop
  endfacet
  facet normal 0 0 1
    outer loop
      vertex -32.2257 -30.1525 15
      vertex -25.0491 -42.5828 15
      vertex -31.75 -29.8779 15
    endloop
  endfacet
  facet normal -0.5 0.866025 -1.36785e-16
    outer loop
      vertex -31.75 -29.8779 12.5
      vertex -32.2257 -30.1525 12.5
      vertex -31.75 -29.8779 15
    endloop
  endfacet
  facet normal -0.5 0.866025 -1.36785e-16
    outer loop
      vertex -31.75 -29.8779 15
      vertex -32.2257 -30.1525 12.5
      vertex -32.2257 -30.1525 15
    endloop
  endfacet
  facet normal 1.92296e-16 1.11022e-16 1
    outer loop
      vertex -32.2257 -30.1525 12.5
      vertex -31.75 -29.8779 12.5
      vertex -41.75 -12.5574 12.5
    endloop
  endfacet
  facet normal 1.92296e-16 1.11022e-16 1
    outer loop
      vertex -42.2257 -12.832 12.5
      vertex -32.2257 -30.1525 12.5
      vertex -41.75 -12.5574 12.5
    endloop
  endfacet
  facet normal -0.707107 -0.707107 0
    outer loop
      vertex -24.8305 -42.8013 -15.1564
      vertex -24.8305 -42.8013 15
      vertex -25.0491 -42.5828 15
    endloop
  endfacet
  facet normal -0.707107 -0.707107 0
    outer loop
      vertex -25.0491 -42.5828 -15.1564
      vertex -24.8305 -42.8013 -15.1564
      vertex -25.0491 -42.5828 15
    endloop
  endfacet
  facet normal -0.673285 -0.673285 -0.305573
    outer loop
      vertex -24.9708 -42.526 -15.454
      vertex -24.7737 -42.7231 -15.454
      vertex -24.8305 -42.8013 -15.1564
    endloop
  endfacet
  facet normal -0.673285 -0.673285 -0.305573
    outer loop
      vertex -25.0491 -42.5828 -15.1564
      vertex -24.9708 -42.526 -15.454
      vertex -24.8305 -42.8013 -15.1564
    endloop
  endfacet
  facet normal -0.585256 0.0926916 -0.805533
    outer loop
      vertex -48.9318 0.140291 -15.891
      vertex -48.954 0 -15.891
      vertex -49.1725 0.218508 -15.7071
    endloop
  endfacet
  facet normal -0.527966 0.269014 -0.805533
    outer loop
      vertex -49.0721 0.415627 -15.7071
      vertex -48.9318 0.140291 -15.891
      vertex -49.1725 0.218508 -15.7071
    endloop
  endfacet
  facet normal -0.723906 0.368852 -0.583017
    outer loop
      vertex -49.0721 0.415627 -15.7071
      vertex -49.1725 0.218508 -15.7071
      vertex -49.2208 0.52372 -15.454
    endloop
  endfacet
  facet normal -0.701957 0.405275 -0.58567
    outer loop
      vertex -24.8221 42.4179 -15.7071
      vertex -49.0721 0.415627 -15.7071
      vertex -24.9708 42.526 -15.454
    endloop
  endfacet
  facet normal -0.701957 0.405275 -0.58567
    outer loop
      vertex -24.9708 42.526 -15.454
      vertex -49.0721 0.415627 -15.7071
      vertex -49.2208 0.52372 -15.454
    endloop
  endfacet
  facet normal -0.574496 0.574496 -0.583017
    outer loop
      vertex -24.6656 42.5743 -15.7071
      vertex -24.8221 42.4179 -15.7071
      vertex -24.7737 42.7231 -15.454
    endloop
  endfacet
  facet normal -0.574496 0.574496 -0.583017
    outer loop
      vertex -24.7737 42.7231 -15.454
      vertex -24.8221 42.4179 -15.7071
      vertex -24.9708 42.526 -15.454
    endloop
  endfacet
  facet normal -0.574496 -0.574496 -0.583017
    outer loop
      vertex -24.6656 -42.5743 -15.7071
      vertex -24.7737 -42.7231 -15.454
      vertex -24.8221 -42.4179 -15.7071
    endloop
  endfacet
  facet normal -0.574496 -0.574496 -0.583017
    outer loop
      vertex -24.8221 -42.4179 -15.7071
      vertex -24.7737 -42.7231 -15.454
      vertex -24.9708 -42.526 -15.454
    endloop
  endfacet
  facet normal -0.418997 -0.418997 -0.805533
    outer loop
      vertex -24.5168 -42.3695 -15.891
      vertex -24.6656 -42.5743 -15.7071
      vertex -24.6173 -42.2691 -15.891
    endloop
  endfacet
  facet normal -0.418997 -0.418997 -0.805533
    outer loop
      vertex -24.6173 -42.2691 -15.891
      vertex -24.6656 -42.5743 -15.7071
      vertex -24.8221 -42.4179 -15.7071
    endloop
  endfacet
  facet normal -0.268947 -0.155276 -0.950556
    outer loop
      vertex -24.3766 -42.0942 -15.9877
      vertex -24.6173 -42.2691 -15.891
      vertex -48.6266 -0.09195 -15.9877
    endloop
  endfacet
  facet normal -0.268947 -0.155276 -0.950556
    outer loop
      vertex -48.6266 -0.09195 -15.9877
      vertex -24.6173 -42.2691 -15.891
      vertex -48.8673 -0.266849 -15.891
    endloop
  endfacet
  facet normal -0.278432 -0.141869 -0.94992
    outer loop
      vertex -48.6266 -0.09195 -15.9877
      vertex -48.8673 -0.266849 -15.891
      vertex -48.9318 -0.140291 -15.891
    endloop
  endfacet
  facet normal -0.220966 -0.220966 -0.94992
    outer loop
      vertex -24.3419 -42.1288 -15.9877
      vertex -24.5168 -42.3695 -15.891
      vertex -24.3766 -42.0942 -15.9877
    endloop
  endfacet
  facet normal -0.220966 -0.220966 -0.94992
    outer loop
      vertex -24.3766 -42.0942 -15.9877
      vertex -24.5168 -42.3695 -15.891
      vertex -24.6173 -42.2691 -15.891
    endloop
  endfacet
  facet normal -0.278432 -0.141869 -0.94992
    outer loop
      vertex -48.6488 -0.048341 -15.9877
      vertex -48.6266 -0.09195 -15.9877
      vertex -48.9318 -0.140291 -15.891
    endloop
  endfacet
  facet normal -0.308645 -0.0488826 -0.94992
    outer loop
      vertex -48.6488 -0.048341 -15.9877
      vertex -48.9318 -0.140291 -15.891
      vertex -48.954 0 -15.891
    endloop
  endfacet
  facet normal -0.308645 -0.0488817 -0.94992
    outer loop
      vertex -48.6564 0 -15.9877
      vertex -48.6488 -0.048341 -15.9877
      vertex -48.954 0 -15.891
    endloop
  endfacet
  facet normal -0.308645 0.0488826 -0.94992
    outer loop
      vertex -48.9318 0.140291 -15.891
      vertex -48.6564 0 -15.9877
      vertex -48.954 0 -15.891
    endloop
  endfacet
  facet normal -0.453987 0.891008 0
    outer loop
      vertex -24.5552 42.9416 15
      vertex -24.5552 42.9416 -15.1564
      vertex -24.8305 42.8013 15
    endloop
  endfacet
  facet normal -0.453987 0.891008 0
    outer loop
      vertex -24.8305 42.8013 15
      vertex -24.5552 42.9416 -15.1564
      vertex -24.8305 42.8013 -15.1564
    endloop
  endfacet
  facet normal -0.432273 0.84839 -0.305573
    outer loop
      vertex -24.5552 42.9416 -15.1564
      vertex -24.7737 42.7231 -15.454
      vertex -24.8305 42.8013 -15.1564
    endloop
  endfacet
  facet normal -0.368851 0.723906 -0.583017
    outer loop
      vertex -24.5253 42.8496 -15.454
      vertex -24.6656 42.5743 -15.7071
      vertex -24.7737 42.7231 -15.454
    endloop
  endfacet
  facet normal -0.432279 0.848389 -0.305567
    outer loop
      vertex -24.5552 42.9416 -15.1564
      vertex -24.5253 42.8496 -15.454
      vertex -24.7737 42.7231 -15.454
    endloop
  endfacet
  facet normal -0.156435 0.987688 0
    outer loop
      vertex -24.25 42.9899 15
      vertex -24.25 42.9899 -15.1564
      vertex -24.5552 42.9416 15
    endloop
  endfacet
  facet normal -0.156435 0.987688 0
    outer loop
      vertex -24.5552 42.9416 15
      vertex -24.25 42.9899 -15.1564
      vertex -24.5552 42.9416 -15.1564
    endloop
  endfacet
  facet normal 0 1 0
    outer loop
      vertex -10 42.9899 15
      vertex -10 42.9899 12.5
      vertex -24.25 42.9899 15
    endloop
  endfacet
  facet normal 0 1 0
    outer loop
      vertex -24.25 42.9899 15
      vertex -10 42.9899 12.5
      vertex 24.25 42.9899 -15.1564
    endloop
  endfacet
  facet normal 0 1 0
    outer loop
      vertex 24.25 42.9899 15
      vertex 10 42.9899 12.5
      vertex 10 42.9899 15
    endloop
  endfacet
  facet normal 0 1 0
    outer loop
      vertex 24.25 42.9899 -15.1564
      vertex 10 42.9899 12.5
      vertex 24.25 42.9899 15
    endloop
  endfacet
  facet normal 0 1 0
    outer loop
      vertex -10 42.9899 12.5
      vertex 10 42.9899 12.5
      vertex 24.25 42.9899 -15.1564
    endloop
  endfacet
  facet normal 0 1 0
    outer loop
      vertex -24.25 42.9899 15
      vertex 24.25 42.9899 -15.1564
      vertex -24.25 42.9899 -15.1564
    endloop
  endfacet
  facet normal 1 -1.22465e-16 -2.54072e-33
    outer loop
      vertex -10 42.9899 12.5
      vertex -10 42.9899 15
      vertex -10 42.4352 15
    endloop
  endfacet
  facet normal 1 -1.22465e-16 -2.54072e-33
    outer loop
      vertex -10 42.4352 12.5
      vertex -10 42.9899 12.5
      vertex -10 42.4352 15
    endloop
  endfacet
  facet normal -0.866025 -0.5 0
    outer loop
      vertex 49 0 15
      vertex 41.75 12.5574 15
      vertex 49 0 -15.5
    endloop
  endfacet
  facet normal -0.866025 -0.5 0
    outer loop
      vertex 49 0 -15.5
      vertex 41.75 12.5574 15
      vertex 41.75 12.5574 12.5
    endloop
  endfacet
  facet normal -0.866025 -0.5 0
    outer loop
      vertex 49 0 -15.5
      vertex 41.75 12.5574 12.5
      vertex 31.75 29.8779 12.5
    endloop
  endfacet
  facet normal -0.866025 -0.5 0
    outer loop
      vertex 31.75 29.8779 12.5
      vertex 31.75 29.8779 15
      vertex 24.5 42.4352 15
    endloop
  endfacet
  facet normal -0.866025 -0.5 0
    outer loop
      vertex 31.75 29.8779 12.5
      vertex 24.5 42.4352 15
      vertex 49 0 -15.5
    endloop
  endfacet
  facet normal -0.866025 -0.5 0
    outer loop
      vertex 49 0 -15.5
      vertex 24.5 42.4352 15
      vertex 24.5 42.4352 -15.5
    endloop
  endfacet
  facet normal -0.866025 0.5 0
    outer loop
      vertex 31.75 -29.8779 15
      vertex 31.75 -29.8779 12.5
      vertex 24.5 -42.4352 15
    endloop
  endfacet
  facet normal -0.866025 0.5 0
    outer loop
      vertex 24.5 -42.4352 15
      vertex 31.75 -29.8779 12.5
      vertex 49 0 -15.5
    endloop
  endfacet
  facet normal -0.866025 0.5 0
    outer loop
      vertex 49 0 15
      vertex 41.75 -12.5574 12.5
      vertex 41.75 -12.5574 15
    endloop
  endfacet
  facet normal -0.866025 0.5 0
    outer loop
      vertex 49 0 -15.5
      vertex 41.75 -12.5574 12.5
      vertex 49 0 15
    endloop
  endfacet
  facet normal -0.866025 0.5 0
    outer loop
      vertex 31.75 -29.8779 12.5
      vertex 41.75 -12.5574 12.5
      vertex 49 0 -15.5
    endloop
  endfacet
  facet normal -0.866025 0.5 0
    outer loop
      vertex 24.5 -42.4352 15
      vertex 49 0 -15.5
      vertex 24.5 -42.4352 -15.5
    endloop
  endfacet
  facet normal -2.71926e-32 -2.22045e-16 1
    outer loop
      vertex 10 42.4352 12.5
      vertex 10 42.9899 12.5
      vertex -10 42.9899 12.5
    endloop
  endfacet
  facet normal -2.71926e-32 -2.22045e-16 1
    outer loop
      vertex -10 42.4352 12.5
      vertex 10 42.4352 12.5
      vertex -10 42.9899 12.5
    endloop
  endfacet
  facet normal -1 1.22465e-16 2.54072e-33
    outer loop
      vertex 10 42.9899 15
      vertex 10 42.9899 12.5
      vertex 10 42.4352 15
    endloop
  endfacet
  facet normal -1 1.22465e-16 2.54072e-33
    outer loop
      vertex 10 42.4352 15
      vertex 10 42.9899 12.5
      vertex 10 42.4352 12.5
    endloop
  endfacet
  facet normal 0 0 1
    outer loop
      vertex 24.5 42.4352 15
      vertex 31.75 29.8779 15
      vertex 32.2257 30.1525 15
    endloop
  endfacet
  facet normal 0 0 1
    outer loop
      vertex 24.8305 42.8013 15
      vertex 24.5 42.4352 15
      vertex 25.0491 42.5828 15
    endloop
  endfacet
  facet normal 0 0 1
    outer loop
      vertex 25.0491 42.5828 15
      vertex 24.5 42.4352 15
      vertex 32.2257 30.1525 15
    endloop
  endfacet
  facet normal 0 0 1
    outer loop
      vertex 24.5552 42.9416 15
      vertex 24.5 42.4352 15
      vertex 24.8305 42.8013 15
    endloop
  endfacet
  facet normal 0 0 1
    outer loop
      vertex 24.25 42.9899 15
      vertex 24.5 42.4352 15
      vertex 24.5552 42.9416 15
    endloop
  endfacet
  facet normal 0 0 1
    outer loop
      vertex 10 42.9899 15
      vertex 24.5 42.4352 15
      vertex 24.25 42.9899 15
    endloop
  endfacet
  facet normal 0 0 1
    outer loop
      vertex 10 42.4352 15
      vertex 24.5 42.4352 15
      vertex 10 42.9899 15
    endloop
  endfacet
  facet normal 0 0 1
    outer loop
      vertex 24.25 -42.9899 15
      vertex 24.5552 -42.9416 15
      vertex 24.8305 -42.8013 15
    endloop
  endfacet
  facet normal 0 0 1
    outer loop
      vertex 32.2257 -30.1525 15
      vertex 24.25 -42.9899 15
      vertex 25.0491 -42.5828 15
    endloop
  endfacet
  facet normal 0 0 1
    outer loop
      vertex 25.0491 -42.5828 15
      vertex 24.25 -42.9899 15
      vertex 24.8305 -42.8013 15
    endloop
  endfacet
  facet normal 0 0 1
    outer loop
      vertex 31.75 -29.8779 15
      vertex 24.25 -42.9899 15
      vertex 32.2257 -30.1525 15
    endloop
  endfacet
  facet normal 0 0 1
    outer loop
      vertex 24.5 -42.4352 15
      vertex 24.25 -42.9899 15
      vertex 31.75 -29.8779 15
    endloop
  endfacet
  facet normal 0 0 1
    outer loop
      vertex 10 -42.4352 15
      vertex 24.25 -42.9899 15
      vertex 24.5 -42.4352 15
    endloop
  endfacet
  facet normal 0 0 1
    outer loop
      vertex 10 -42.9899 15
      vertex 24.25 -42.9899 15
      vertex 10 -42.4352 15
    endloop
  endfacet
  facet normal -1 0 0
    outer loop
      vertex 10 -42.4352 15
      vertex 10 -42.4352 12.5
      vertex 10 -42.9899 15
    endloop
  endfacet
  facet normal -1 0 0
    outer loop
      vertex 10 -42.9899 15
      vertex 10 -42.4352 12.5
      vertex 10 -42.9899 12.5
    endloop
  endfacet
  facet normal 0 2.22045e-16 1
    outer loop
      vertex 10 -42.9899 12.5
      vertex 10 -42.4352 12.5
      vertex -10 -42.4352 12.5
    endloop
  endfacet
  facet normal 0 2.22045e-16 1
    outer loop
      vertex -10 -42.9899 12.5
      vertex 10 -42.9899 12.5
      vertex -10 -42.4352 12.5
    endloop
  endfacet
  facet normal 1 0 0
    outer loop
      vertex -10 -42.4352 12.5
      vertex -10 -42.4352 15
      vertex -10 -42.9899 15
    endloop
  endfacet
  facet normal 1 0 0
    outer loop
      vertex -10 -42.9899 12.5
      vertex -10 -42.4352 12.5
      vertex -10 -42.9899 15
    endloop
  endfacet
  facet normal 0 -1 0
    outer loop
      vertex 24.25 -42.9899 -15.1564
      vertex 24.25 -42.9899 15
      vertex 10 -42.9899 15
    endloop
  endfacet
  facet normal 0 -1 0
    outer loop
      vertex -10 -42.9899 12.5
      vertex 24.25 -42.9899 -15.1564
      vertex 10 -42.9899 12.5
    endloop
  endfacet
  facet normal 0 -1 0
    outer loop
      vertex 10 -42.9899 12.5
      vertex 24.25 -42.9899 -15.1564
      vertex 10 -42.9899 15
    endloop
  endfacet
  facet normal 0 -1 0
    outer loop
      vertex -24.25 -42.9899 15
      vertex 24.25 -42.9899 -15.1564
      vertex -10 -42.9899 12.5
    endloop
  endfacet
  facet normal 0 -1 0
    outer loop
      vertex -24.25 -42.9899 15
      vertex -10 -42.9899 12.5
      vertex -10 -42.9899 15
    endloop
  endfacet
  facet normal 0 -1 0
    outer loop
      vertex -24.25 -42.9899 -15.1564
      vertex 24.25 -42.9899 -15.1564
      vertex -24.25 -42.9899 15
    endloop
  endfacet
  facet normal -0.156435 -0.987688 0
    outer loop
      vertex -24.25 -42.9899 -15.1564
      vertex -24.25 -42.9899 15
      vertex -24.5552 -42.9416 15
    endloop
  endfacet
  facet normal -0.156435 -0.987688 0
    outer loop
      vertex -24.5552 -42.9416 -15.1564
      vertex -24.25 -42.9899 -15.1564
      vertex -24.5552 -42.9416 15
    endloop
  endfacet
  facet normal -0.453987 -0.891008 0
    outer loop
      vertex -24.5552 -42.9416 -15.1564
      vertex -24.5552 -42.9416 15
      vertex -24.8305 -42.8013 15
    endloop
  endfacet
  facet normal -0.453987 -0.891008 0
    outer loop
      vertex -24.8305 -42.8013 -15.1564
      vertex -24.5552 -42.9416 -15.1564
      vertex -24.8305 -42.8013 15
    endloop
  endfacet
  facet normal -0.432273 -0.848392 -0.305567
    outer loop
      vertex -24.5253 -42.8496 -15.454
      vertex -24.5552 -42.9416 -15.1564
      vertex -24.8305 -42.8013 -15.1564
    endloop
  endfacet
  facet normal -0.432278 -0.848387 -0.305573
    outer loop
      vertex -24.7737 -42.7231 -15.454
      vertex -24.5253 -42.8496 -15.454
      vertex -24.8305 -42.8013 -15.1564
    endloop
  endfacet
  facet normal -0.368851 -0.723906 -0.583017
    outer loop
      vertex -24.4685 -42.6747 -15.7071
      vertex -24.5253 -42.8496 -15.454
      vertex -24.7737 -42.7231 -15.454
    endloop
  endfacet
  facet normal -0.368852 -0.723906 -0.583017
    outer loop
      vertex -24.6656 -42.5743 -15.7071
      vertex -24.4685 -42.6747 -15.7071
      vertex -24.7737 -42.7231 -15.454
    endloop
  endfacet
  facet normal -0.308646 0.0488817 -0.94992
    outer loop
      vertex -48.6488 0.048341 -15.9877
      vertex -48.6564 0 -15.9877
      vertex -48.9318 0.140291 -15.891
    endloop
  endfacet
  facet normal -0.278432 0.141869 -0.94992
    outer loop
      vertex -48.8673 0.266849 -15.891
      vertex -48.6488 0.048341 -15.9877
      vertex -48.9318 0.140291 -15.891
    endloop
  endfacet
  facet normal -0.527966 0.269014 -0.805533
    outer loop
      vertex -48.8673 0.266849 -15.891
      vertex -48.9318 0.140291 -15.891
      vertex -49.0721 0.415627 -15.7071
    endloop
  endfacet
  facet normal -0.510868 0.29495 -0.807477
    outer loop
      vertex -24.6173 42.2691 -15.891
      vertex -48.8673 0.266849 -15.891
      vertex -24.8221 42.4179 -15.7071
    endloop
  endfacet
  facet normal -0.510868 0.29495 -0.807477
    outer loop
      vertex -24.8221 42.4179 -15.7071
      vertex -48.8673 0.266849 -15.891
      vertex -49.0721 0.415627 -15.7071
    endloop
  endfacet
  facet normal -0.418997 0.418997 -0.805533
    outer loop
      vertex -24.5168 42.3695 -15.891
      vertex -24.6173 42.2691 -15.891
      vertex -24.6656 42.5743 -15.7071
    endloop
  endfacet
  facet normal -0.418997 0.418997 -0.805533
    outer loop
      vertex -24.6656 42.5743 -15.7071
      vertex -24.6173 42.2691 -15.891
      vertex -24.8221 42.4179 -15.7071
    endloop
  endfacet
  facet normal -0.269014 0.527966 -0.805533
    outer loop
      vertex -24.4685 42.6747 -15.7071
      vertex -24.5168 42.3695 -15.891
      vertex -24.6656 42.5743 -15.7071
    endloop
  endfacet
  facet normal -0.368852 0.723906 -0.583017
    outer loop
      vertex -24.5253 42.8496 -15.454
      vertex -24.4685 42.6747 -15.7071
      vertex -24.6656 42.5743 -15.7071
    endloop
  endfacet
  facet normal -0.269014 -0.527966 -0.805533
    outer loop
      vertex -24.3903 -42.434 -15.891
      vertex -24.4685 -42.6747 -15.7071
      vertex -24.6656 -42.5743 -15.7071
    endloop
  endfacet
  facet normal -0.269014 -0.527966 -0.805533
    outer loop
      vertex -24.5168 -42.3695 -15.891
      vertex -24.3903 -42.434 -15.891
      vertex -24.6656 -42.5743 -15.7071
    endloop
  endfacet
  facet normal -0.141869 -0.278432 -0.94992
    outer loop
      vertex -24.2983 -42.151 -15.9877
      vertex -24.3903 -42.434 -15.891
      vertex -24.5168 -42.3695 -15.891
    endloop
  endfacet
  facet normal -0.141869 -0.278432 -0.94992
    outer loop
      vertex -24.3419 -42.1288 -15.9877
      vertex -24.2983 -42.151 -15.9877
      vertex -24.5168 -42.3695 -15.891
    endloop
  endfacet
  facet normal 0 0 -1
    outer loop
      vertex -48.6266 0.09195 -15.9877
      vertex -24.3766 42.0942 -15.9877
      vertex -48.6488 0.048341 -15.9877
    endloop
  endfacet
  facet normal 0 0 -1
    outer loop
      vertex -48.6488 0.048341 -15.9877
      vertex -24.3766 42.0942 -15.9877
      vertex -24.3419 42.1288 -15.9877
    endloop
  endfacet
  facet normal 0 0 -1
    outer loop
      vertex -48.6488 0.048341 -15.9877
      vertex -24.3419 42.1288 -15.9877
      vertex -24.2983 42.151 -15.9877
    endloop
  endfacet
  facet normal 0 0 -1
    outer loop
      vertex -48.6488 0.048341 -15.9877
      vertex -24.2983 42.151 -15.9877
      vertex -24.25 42.1587 -15.9877
    endloop
  endfacet
  facet normal 0 0 -1
    outer loop
      vertex -48.6488 0.048341 -15.9877
      vertex -24.25 42.1587 -15.9877
      vertex 24.25 42.1587 -15.9877
    endloop
  endfacet
  facet normal 0 0 -1
    outer loop
      vertex -48.6488 0.048341 -15.9877
      vertex 24.25 42.1587 -15.9877
      vertex 24.2983 42.151 -15.9877
    endloop
  endfacet
  facet normal 0 0 -1
    outer loop
      vertex -48.6488 0.048341 -15.9877
      vertex 24.2983 42.151 -15.9877
      vertex 24.3419 42.1288 -15.9877
    endloop
  endfacet
  facet normal 0 0 -1
    outer loop
      vertex -48.6488 0.048341 -15.9877
      vertex 24.3419 42.1288 -15.9877
      vertex 24.3766 42.0942 -15.9877
    endloop
  endfacet
  facet normal 0 0 -1
    outer loop
      vertex -48.6488 0.048341 -15.9877
      vertex 24.3766 42.0942 -15.9877
      vertex 48.6266 0.09195 -15.9877
    endloop
  endfacet
  facet normal 0 0 -1
    outer loop
      vertex -48.6488 0.048341 -15.9877
      vertex 48.6266 0.09195 -15.9877
      vertex 48.6488 0.048341 -15.9877
    endloop
  endfacet
  facet normal 0 0 -1
    outer loop
      vertex -48.6488 0.048341 -15.9877
      vertex 48.6488 0.048341 -15.9877
      vertex 48.6564 0 -15.9877
    endloop
  endfacet
  facet normal 0 0 -1
    outer loop
      vertex -48.6488 0.048341 -15.9877
      vertex 48.6564 0 -15.9877
      vertex 48.6488 -0.048341 -15.9877
    endloop
  endfacet
  facet normal 0 0 -1
    outer loop
      vertex -48.6488 0.048341 -15.9877
      vertex 48.6488 -0.048341 -15.9877
      vertex 48.6266 -0.09195 -15.9877
    endloop
  endfacet
  facet normal 0 0 -1
    outer loop
      vertex -48.6488 0.048341 -15.9877
      vertex 48.6266 -0.09195 -15.9877
      vertex 24.3766 -42.0942 -15.9877
    endloop
  endfacet
  facet normal 0 0 -1
    outer loop
      vertex -48.6488 0.048341 -15.9877
      vertex 24.3766 -42.0942 -15.9877
      vertex 24.3419 -42.1288 -15.9877
    endloop
  endfacet
  facet normal 0 0 -1
    outer loop
      vertex -48.6488 0.048341 -15.9877
      vertex 24.3419 -42.1288 -15.9877
      vertex 24.2983 -42.151 -15.9877
    endloop
  endfacet
  facet normal 0 0 -1
    outer loop
      vertex -48.6488 0.048341 -15.9877
      vertex 24.2983 -42.151 -15.9877
      vertex 24.25 -42.1587 -15.9877
    endloop
  endfacet
  facet normal 0 0 -1
    outer loop
      vertex -48.6488 0.048341 -15.9877
      vertex 24.25 -42.1587 -15.9877
      vertex -24.25 -42.1587 -15.9877
    endloop
  endfacet
  facet normal 0 0 -1
    outer loop
      vertex -48.6488 0.048341 -15.9877
      vertex -24.25 -42.1587 -15.9877
      vertex -24.2983 -42.151 -15.9877
    endloop
  endfacet
  facet normal 0 0 -1
    outer loop
      vertex -48.6488 0.048341 -15.9877
      vertex -24.2983 -42.151 -15.9877
      vertex -24.3419 -42.1288 -15.9877
    endloop
  endfacet
  facet normal 0 0 -1
    outer loop
      vertex -48.6488 0.048341 -15.9877
      vertex -24.3419 -42.1288 -15.9877
      vertex -24.3766 -42.0942 -15.9877
    endloop
  endfacet
  facet normal 0 0 -1
    outer loop
      vertex -48.6488 0.048341 -15.9877
      vertex -24.3766 -42.0942 -15.9877
      vertex -48.6266 -0.09195 -15.9877
    endloop
  endfacet
  facet normal 0 0 -1
    outer loop
      vertex -48.6488 0.048341 -15.9877
      vertex -48.6266 -0.09195 -15.9877
      vertex -48.6488 -0.048341 -15.9877
    endloop
  endfacet
  facet normal 0 0 -1
    outer loop
      vertex -48.6488 0.048341 -15.9877
      vertex -48.6488 -0.048341 -15.9877
      vertex -48.6564 0 -15.9877
    endloop
  endfacet
  facet normal -0.148953 0.940448 -0.305567
    outer loop
      vertex -24.25 42.9899 -15.1564
      vertex -24.5253 42.8496 -15.454
      vertex -24.5552 42.9416 -15.1564
    endloop
  endfacet
  facet normal -0.127097 0.802457 -0.583017
    outer loop
      vertex -24.25 42.8932 -15.454
      vertex -24.4685 42.6747 -15.7071
      vertex -24.5253 42.8496 -15.454
    endloop
  endfacet
  facet normal -0.148952 0.940448 -0.305567
    outer loop
      vertex -24.25 42.9899 -15.1564
      vertex -24.25 42.8932 -15.454
      vertex -24.5253 42.8496 -15.454
    endloop
  endfacet
  facet normal 0 0.951057 -0.309015
    outer loop
      vertex 24.25 42.9899 -15.1564
      vertex 24.25 42.8932 -15.454
      vertex -24.25 42.9899 -15.1564
    endloop
  endfacet
  facet normal 0 0.951057 -0.309015
    outer loop
      vertex -24.25 42.9899 -15.1564
      vertex 24.25 42.8932 -15.454
      vertex -24.25 42.8932 -15.454
    endloop
  endfacet
  facet normal 0.156435 0.987688 0
    outer loop
      vertex 24.5552 42.9416 15
      vertex 24.5552 42.9416 -15.1564
      vertex 24.25 42.9899 15
    endloop
  endfacet
  facet normal 0.156435 0.987688 0
    outer loop
      vertex 24.25 42.9899 15
      vertex 24.5552 42.9416 -15.1564
      vertex 24.25 42.9899 -15.1564
    endloop
  endfacet
  facet normal 0.148953 0.940448 -0.305567
    outer loop
      vertex 24.25 42.9899 -15.1564
      vertex 24.5552 42.9416 -15.1564
      vertex 24.25 42.8932 -15.454
    endloop
  endfacet
  facet normal 0.5 -0.866025 -1.0903e-16
    outer loop
      vertex 32.2257 30.1525 12.5
      vertex 32.2257 30.1525 15
      vertex 31.75 29.8779 15
    endloop
  endfacet
  facet normal 0.5 -0.866025 -1.0903e-16
    outer loop
      vertex 31.75 29.8779 12.5
      vertex 32.2257 30.1525 12.5
      vertex 31.75 29.8779 15
    endloop
  endfacet
  facet normal 0 0 1
    outer loop
      vertex 41.75 12.5574 12.5
      vertex 42.2257 12.832 12.5
      vertex 32.2257 30.1525 12.5
    endloop
  endfacet
  facet normal 0 0 1
    outer loop
      vertex 31.75 29.8779 12.5
      vertex 41.75 12.5574 12.5
      vertex 32.2257 30.1525 12.5
    endloop
  endfacet
  facet normal -0.5 0.866025 1.0903e-16
    outer loop
      vertex 42.2257 12.832 15
      vertex 42.2257 12.832 12.5
      vertex 41.75 12.5574 15
    endloop
  endfacet
  facet normal -0.5 0.866025 1.0903e-16
    outer loop
      vertex 41.75 12.5574 15
      vertex 42.2257 12.832 12.5
      vertex 41.75 12.5574 12.5
    endloop
  endfacet
  facet normal 0 0 1
    outer loop
      vertex 42.2257 -12.832 15
      vertex 49.2991 -0.580549 15
      vertex 49.4393 -0.305212 15
    endloop
  endfacet
  facet normal 0 0 1
    outer loop
      vertex 49.4393 0.305212 15
      vertex 42.2257 -12.832 15
      vertex 49.4877 0 15
    endloop
  endfacet
  facet normal 0 0 1
    outer loop
      vertex 49.4877 0 15
      vertex 42.2257 -12.832 15
      vertex 49.4393 -0.305212 15
    endloop
  endfacet
  facet normal 0 0 1
    outer loop
      vertex 49 0 15
      vertex 42.2257 -12.832 15
      vertex 49.4393 0.305212 15
    endloop
  endfacet
  facet normal 0 0 1
    outer loop
      vertex 49 0 15
      vertex 41.75 -12.5574 15
      vertex 42.2257 -12.832 15
    endloop
  endfacet
  facet normal 0 0 1
    outer loop
      vertex 49.2991 0.580549 15
      vertex 49 0 15
      vertex 49.4393 0.305212 15
    endloop
  endfacet
  facet normal 0 0 1
    outer loop
      vertex 41.75 12.5574 15
      vertex 49.2991 0.580549 15
      vertex 42.2257 12.832 15
    endloop
  endfacet
  facet normal 0 0 1
    outer loop
      vertex 41.75 12.5574 15
      vertex 49 0 15
      vertex 49.2991 0.580549 15
    endloop
  endfacet
  facet normal -0.5 -0.866025 1.36785e-16
    outer loop
      vertex 42.2257 -12.832 12.5
      vertex 42.2257 -12.832 15
      vertex 41.75 -12.5574 15
    endloop
  endfacet
  facet normal -0.5 -0.866025 1.36785e-16
    outer loop
      vertex 41.75 -12.5574 12.5
      vertex 42.2257 -12.832 12.5
      vertex 41.75 -12.5574 15
    endloop
  endfacet
  facet normal -1.92296e-16 1.11022e-16 1
    outer loop
      vertex 32.2257 -30.1525 12.5
      vertex 42.2257 -12.832 12.5
      vertex 41.75 -12.5574 12.5
    endloop
  endfacet
  facet normal -1.92296e-16 1.11022e-16 1
    outer loop
      vertex 31.75 -29.8779 12.5
      vertex 32.2257 -30.1525 12.5
      vertex 41.75 -12.5574 12.5
    endloop
  endfacet
  facet normal 0.5 0.866025 -1.36785e-16
    outer loop
      vertex 32.2257 -30.1525 15
      vertex 32.2257 -30.1525 12.5
      vertex 31.75 -29.8779 15
    endloop
  endfacet
  facet normal 0.5 0.866025 -1.36785e-16
    outer loop
      vertex 31.75 -29.8779 15
      vertex 32.2257 -30.1525 12.5
      vertex 31.75 -29.8779 12.5
    endloop
  endfacet
  facet normal 0.453987 0.891008 0
    outer loop
      vertex 24.8305 42.8013 15
      vertex 24.8305 42.8013 -15.1564
      vertex 24.5552 42.9416 15
    endloop
  endfacet
  facet normal 0.453987 0.891008 0
    outer loop
      vertex 24.5552 42.9416 15
      vertex 24.8305 42.8013 -15.1564
      vertex 24.5552 42.9416 -15.1564
    endloop
  endfacet
  facet normal 0.707107 0.707107 0
    outer loop
      vertex 25.0491 42.5828 15
      vertex 25.0491 42.5828 -15.1564
      vertex 24.8305 42.8013 15
    endloop
  endfacet
  facet normal 0.707107 0.707107 0
    outer loop
      vertex 24.8305 42.8013 15
      vertex 25.0491 42.5828 -15.1564
      vertex 24.8305 42.8013 -15.1564
    endloop
  endfacet
  facet normal 0.866025 0.5 0
    outer loop
      vertex 42.2257 12.832 12.5
      vertex 49.2991 0.580549 -15.1564
      vertex 32.2257 30.1525 12.5
    endloop
  endfacet
  facet normal 0.866025 0.5 0
    outer loop
      vertex 25.0491 42.5828 15
      vertex 32.2257 30.1525 15
      vertex 32.2257 30.1525 12.5
    endloop
  endfacet
  facet normal 0.866025 0.5 0
    outer loop
      vertex 49.2991 0.580549 -15.1564
      vertex 25.0491 42.5828 15
      vertex 32.2257 30.1525 12.5
    endloop
  endfacet
  facet normal 0.866025 0.5 0
    outer loop
      vertex 42.2257 12.832 15
      vertex 49.2991 0.580549 15
      vertex 42.2257 12.832 12.5
    endloop
  endfacet
  facet normal 0.866025 0.5 0
    outer loop
      vertex 49.2991 0.580549 15
      vertex 49.2991 0.580549 -15.1564
      vertex 42.2257 12.832 12.5
    endloop
  endfacet
  facet normal 0.866025 0.5 0
    outer loop
      vertex 49.2991 0.580549 -15.1564
      vertex 25.0491 42.5828 -15.1564
      vertex 25.0491 42.5828 15
    endloop
  endfacet
  facet normal 0.156435 -0.987688 0
    outer loop
      vertex 24.5552 -42.9416 -15.1564
      vertex 24.5552 -42.9416 15
      vertex 24.25 -42.9899 15
    endloop
  endfacet
  facet normal 0.156435 -0.987688 0
    outer loop
      vertex 24.25 -42.9899 -15.1564
      vertex 24.5552 -42.9416 -15.1564
      vertex 24.25 -42.9899 15
    endloop
  endfacet
  facet normal 0.866025 -0.5 0
    outer loop
      vertex 49.2991 -0.580549 -15.1564
      vertex 49.2991 -0.580549 15
      vertex 42.2257 -12.832 15
    endloop
  endfacet
  facet normal 0.866025 -0.5 0
    outer loop
      vertex 32.2257 -30.1525 12.5
      vertex 49.2991 -0.580549 -15.1564
      vertex 42.2257 -12.832 12.5
    endloop
  endfacet
  facet normal 0.866025 -0.5 0
    outer loop
      vertex 42.2257 -12.832 12.5
      vertex 49.2991 -0.580549 -15.1564
      vertex 42.2257 -12.832 15
    endloop
  endfacet
  facet normal 0.866025 -0.5 0
    outer loop
      vertex 25.0491 -42.5828 15
      vertex 49.2991 -0.580549 -15.1564
      vertex 32.2257 -30.1525 12.5
    endloop
  endfacet
  facet normal 0.866025 -0.5 0
    outer loop
      vertex 25.0491 -42.5828 15
      vertex 32.2257 -30.1525 12.5
      vertex 32.2257 -30.1525 15
    endloop
  endfacet
  facet normal 0.866025 -0.5 0
    outer loop
      vertex 25.0491 -42.5828 -15.1564
      vertex 49.2991 -0.580549 -15.1564
      vertex 25.0491 -42.5828 15
    endloop
  endfacet
  facet normal 0.707107 -0.707107 0
    outer loop
      vertex 25.0491 -42.5828 -15.1564
      vertex 25.0491 -42.5828 15
      vertex 24.8305 -42.8013 15
    endloop
  endfacet
  facet normal 0.707107 -0.707107 0
    outer loop
      vertex 24.8305 -42.8013 -15.1564
      vertex 25.0491 -42.5828 -15.1564
      vertex 24.8305 -42.8013 15
    endloop
  endfacet
  facet normal 0.453987 -0.891008 0
    outer loop
      vertex 24.8305 -42.8013 -15.1564
      vertex 24.8305 -42.8013 15
      vertex 24.5552 -42.9416 15
    endloop
  endfacet
  facet normal 0.453987 -0.891008 0
    outer loop
      vertex 24.5552 -42.9416 -15.1564
      vertex 24.8305 -42.8013 -15.1564
      vertex 24.5552 -42.9416 15
    endloop
  endfacet
  facet normal 0.148953 -0.940448 -0.305567
    outer loop
      vertex 24.5253 -42.8496 -15.454
      vertex 24.5552 -42.9416 -15.1564
      vertex 24.25 -42.9899 -15.1564
    endloop
  endfacet
  facet normal 0.148952 -0.940448 -0.305567
    outer loop
      vertex 24.25 -42.8932 -15.454
      vertex 24.5253 -42.8496 -15.454
      vertex 24.25 -42.9899 -15.1564
    endloop
  endfacet
  facet normal 0 -0.951057 -0.309015
    outer loop
      vertex -24.25 -42.8932 -15.454
      vertex 24.25 -42.8932 -15.454
      vertex 24.25 -42.9899 -15.1564
    endloop
  endfacet
  facet normal 0 -0.951057 -0.309015
    outer loop
      vertex -24.25 -42.9899 -15.1564
      vertex -24.25 -42.8932 -15.454
      vertex 24.25 -42.9899 -15.1564
    endloop
  endfacet
  facet normal -0.148953 -0.940448 -0.305567
    outer loop
      vertex -24.25 -42.8932 -15.454
      vertex -24.25 -42.9899 -15.1564
      vertex -24.5552 -42.9416 -15.1564
    endloop
  endfacet
  facet normal -0.148952 -0.940448 -0.305567
    outer loop
      vertex -24.5253 -42.8496 -15.454
      vertex -24.25 -42.8932 -15.454
      vertex -24.5552 -42.9416 -15.1564
    endloop
  endfacet
  facet normal -0.127097 -0.802457 -0.583018
    outer loop
      vertex -24.25 -42.7093 -15.7071
      vertex -24.25 -42.8932 -15.454
      vertex -24.5253 -42.8496 -15.454
    endloop
  endfacet
  facet normal -0.127096 -0.802457 -0.583017
    outer loop
      vertex -24.4685 -42.6747 -15.7071
      vertex -24.25 -42.7093 -15.7071
      vertex -24.5253 -42.8496 -15.454
    endloop
  endfacet
  facet normal -0.0926944 -0.585254 -0.805534
    outer loop
      vertex -24.25 -42.4562 -15.891
      vertex -24.25 -42.7093 -15.7071
      vertex -24.4685 -42.6747 -15.7071
    endloop
  endfacet
  facet normal -0.0926916 -0.585256 -0.805533
    outer loop
      vertex -24.3903 -42.434 -15.891
      vertex -24.25 -42.4562 -15.891
      vertex -24.4685 -42.6747 -15.7071
    endloop
  endfacet
  facet normal -0.278432 0.141869 -0.94992
    outer loop
      vertex -48.6266 0.09195 -15.9877
      vertex -48.6488 0.048341 -15.9877
      vertex -48.8673 0.266849 -15.891
    endloop
  endfacet
  facet normal -0.268947 0.155276 -0.950556
    outer loop
      vertex -24.3766 42.0942 -15.9877
      vertex -48.6266 0.09195 -15.9877
      vertex -24.6173 42.2691 -15.891
    endloop
  endfacet
  facet normal -0.268947 0.155276 -0.950556
    outer loop
      vertex -24.6173 42.2691 -15.891
      vertex -48.6266 0.09195 -15.9877
      vertex -48.8673 0.266849 -15.891
    endloop
  endfacet
  facet normal -0.220966 0.220966 -0.94992
    outer loop
      vertex -24.3419 42.1288 -15.9877
      vertex -24.3766 42.0942 -15.9877
      vertex -24.5168 42.3695 -15.891
    endloop
  endfacet
  facet normal -0.220966 0.220966 -0.94992
    outer loop
      vertex -24.5168 42.3695 -15.891
      vertex -24.3766 42.0942 -15.9877
      vertex -24.6173 42.2691 -15.891
    endloop
  endfacet
  facet normal -0.141869 0.278432 -0.94992
    outer loop
      vertex -24.3903 42.434 -15.891
      vertex -24.3419 42.1288 -15.9877
      vertex -24.5168 42.3695 -15.891
    endloop
  endfacet
  facet normal -0.269014 0.527966 -0.805533
    outer loop
      vertex -24.4685 42.6747 -15.7071
      vertex -24.3903 42.434 -15.891
      vertex -24.5168 42.3695 -15.891
    endloop
  endfacet
  facet normal -0.0926946 0.585255 -0.805533
    outer loop
      vertex -24.25 42.7093 -15.7071
      vertex -24.3903 42.434 -15.891
      vertex -24.4685 42.6747 -15.7071
    endloop
  endfacet
  facet normal -0.127096 0.802457 -0.583018
    outer loop
      vertex -24.25 42.8932 -15.454
      vertex -24.25 42.7093 -15.7071
      vertex -24.4685 42.6747 -15.7071
    endloop
  endfacet
  facet normal -0.0488826 -0.308645 -0.94992
    outer loop
      vertex -24.25 -42.1587 -15.9877
      vertex -24.25 -42.4562 -15.891
      vertex -24.3903 -42.434 -15.891
    endloop
  endfacet
  facet normal -0.0488817 -0.308646 -0.94992
    outer loop
      vertex -24.2983 -42.151 -15.9877
      vertex -24.25 -42.1587 -15.9877
      vertex -24.3903 -42.434 -15.891
    endloop
  endfacet
  facet normal 0 -0.309015 -0.951057
    outer loop
      vertex 24.25 -42.1587 -15.9877
      vertex 24.25 -42.4562 -15.891
      vertex -24.25 -42.1587 -15.9877
    endloop
  endfacet
  facet normal 0 -0.309015 -0.951057
    outer loop
      vertex -24.25 -42.1587 -15.9877
      vertex 24.25 -42.4562 -15.891
      vertex -24.25 -42.4562 -15.891
    endloop
  endfacet
  facet normal 0.0488817 -0.308645 -0.94992
    outer loop
      vertex 24.25 -42.1587 -15.9877
      vertex 24.2983 -42.151 -15.9877
      vertex 24.25 -42.4562 -15.891
    endloop
  endfacet
  facet normal 0.0488826 -0.308645 -0.94992
    outer loop
      vertex 24.2983 -42.151 -15.9877
      vertex 24.3903 -42.434 -15.891
      vertex 24.25 -42.4562 -15.891
    endloop
  endfacet
  facet normal 0.141869 -0.278432 -0.94992
    outer loop
      vertex 24.3419 -42.1288 -15.9877
      vertex 24.3903 -42.434 -15.891
      vertex 24.2983 -42.151 -15.9877
    endloop
  endfacet
  facet normal 0.220966 -0.220966 -0.94992
    outer loop
      vertex 24.6173 -42.2691 -15.891
      vertex 24.5168 -42.3695 -15.891
      vertex 24.3766 -42.0942 -15.9877
    endloop
  endfacet
  facet normal 0.220966 -0.220966 -0.94992
    outer loop
      vertex 24.3766 -42.0942 -15.9877
      vertex 24.5168 -42.3695 -15.891
      vertex 24.3419 -42.1288 -15.9877
    endloop
  endfacet
  facet normal 0.141869 -0.278432 -0.94992
    outer loop
      vertex 24.5168 -42.3695 -15.891
      vertex 24.3903 -42.434 -15.891
      vertex 24.3419 -42.1288 -15.9877
    endloop
  endfacet
  facet normal 0.268947 -0.155276 -0.950556
    outer loop
      vertex 48.8673 -0.266849 -15.891
      vertex 24.6173 -42.2691 -15.891
      vertex 48.6266 -0.09195 -15.9877
    endloop
  endfacet
  facet normal 0.268947 -0.155276 -0.950556
    outer loop
      vertex 48.6266 -0.09195 -15.9877
      vertex 24.6173 -42.2691 -15.891
      vertex 24.3766 -42.0942 -15.9877
    endloop
  endfacet
  facet normal 0.278432 -0.141869 -0.94992
    outer loop
      vertex 48.6488 -0.048341 -15.9877
      vertex 48.8673 -0.266849 -15.891
      vertex 48.6266 -0.09195 -15.9877
    endloop
  endfacet
  facet normal 0.278432 -0.141869 -0.94992
    outer loop
      vertex 48.9318 -0.140291 -15.891
      vertex 48.8673 -0.266849 -15.891
      vertex 48.6488 -0.048341 -15.9877
    endloop
  endfacet
  facet normal 0.308646 -0.0488817 -0.94992
    outer loop
      vertex 48.6564 0 -15.9877
      vertex 48.9318 -0.140291 -15.891
      vertex 48.6488 -0.048341 -15.9877
    endloop
  endfacet
  facet normal 0.308645 -0.0488826 -0.94992
    outer loop
      vertex 48.954 0 -15.891
      vertex 48.9318 -0.140291 -15.891
      vertex 48.6564 0 -15.9877
    endloop
  endfacet
  facet normal 0.308645 0.0488817 -0.94992
    outer loop
      vertex 48.954 0 -15.891
      vertex 48.6564 0 -15.9877
      vertex 48.6488 0.048341 -15.9877
    endloop
  endfacet
  facet normal 0.308645 0.0488826 -0.94992
    outer loop
      vertex 48.9318 0.140291 -15.891
      vertex 48.954 0 -15.891
      vertex 48.6488 0.048341 -15.9877
    endloop
  endfacet
  facet normal 0.278432 0.141869 -0.94992
    outer loop
      vertex 48.9318 0.140291 -15.891
      vertex 48.6488 0.048341 -15.9877
      vertex 48.6266 0.09195 -15.9877
    endloop
  endfacet
  facet normal 0.278432 0.141869 -0.94992
    outer loop
      vertex 48.8673 0.266849 -15.891
      vertex 48.9318 0.140291 -15.891
      vertex 48.6266 0.09195 -15.9877
    endloop
  endfacet
  facet normal 0.268947 0.155276 -0.950556
    outer loop
      vertex 48.8673 0.266849 -15.891
      vertex 48.6266 0.09195 -15.9877
      vertex 24.6173 42.2691 -15.891
    endloop
  endfacet
  facet normal 0.268947 0.155276 -0.950556
    outer loop
      vertex 24.6173 42.2691 -15.891
      vertex 48.6266 0.09195 -15.9877
      vertex 24.3766 42.0942 -15.9877
    endloop
  endfacet
  facet normal 0.220966 0.220966 -0.94992
    outer loop
      vertex 24.6173 42.2691 -15.891
      vertex 24.3766 42.0942 -15.9877
      vertex 24.5168 42.3695 -15.891
    endloop
  endfacet
  facet normal 0.220966 0.220966 -0.94992
    outer loop
      vertex 24.5168 42.3695 -15.891
      vertex 24.3766 42.0942 -15.9877
      vertex 24.3419 42.1288 -15.9877
    endloop
  endfacet
  facet normal 0.141869 0.278432 -0.94992
    outer loop
      vertex 24.5168 42.3695 -15.891
      vertex 24.3419 42.1288 -15.9877
      vertex 24.2983 42.151 -15.9877
    endloop
  endfacet
  facet normal 0.141869 0.278432 -0.94992
    outer loop
      vertex 24.3903 42.434 -15.891
      vertex 24.5168 42.3695 -15.891
      vertex 24.2983 42.151 -15.9877
    endloop
  endfacet
  facet normal 0.0488817 0.308646 -0.94992
    outer loop
      vertex 24.3903 42.434 -15.891
      vertex 24.2983 42.151 -15.9877
      vertex 24.25 42.1587 -15.9877
    endloop
  endfacet
  facet normal 0.0488826 0.308645 -0.94992
    outer loop
      vertex 24.25 42.4562 -15.891
      vertex 24.3903 42.434 -15.891
      vertex 24.25 42.1587 -15.9877
    endloop
  endfacet
  facet normal 0 0.309015 -0.951057
    outer loop
      vertex 24.25 42.4562 -15.891
      vertex 24.25 42.1587 -15.9877
      vertex -24.25 42.4562 -15.891
    endloop
  endfacet
  facet normal 0 0.309015 -0.951057
    outer loop
      vertex -24.25 42.4562 -15.891
      vertex 24.25 42.1587 -15.9877
      vertex -24.25 42.1587 -15.9877
    endloop
  endfacet
  facet normal -0.0488817 0.308645 -0.94992
    outer loop
      vertex -24.25 42.4562 -15.891
      vertex -24.25 42.1587 -15.9877
      vertex -24.2983 42.151 -15.9877
    endloop
  endfacet
  facet normal -0.0488826 0.308645 -0.94992
    outer loop
      vertex -24.25 42.4562 -15.891
      vertex -24.2983 42.151 -15.9877
      vertex -24.3903 42.434 -15.891
    endloop
  endfacet
  facet normal -0.141869 0.278432 -0.94992
    outer loop
      vertex -24.2983 42.151 -15.9877
      vertex -24.3419 42.1288 -15.9877
      vertex -24.3903 42.434 -15.891
    endloop
  endfacet
  facet normal 0 0.809017 -0.587785
    outer loop
      vertex 24.25 42.8932 -15.454
      vertex 24.25 42.7093 -15.7071
      vertex -24.25 42.8932 -15.454
    endloop
  endfacet
  facet normal 0 0.809017 -0.587785
    outer loop
      vertex -24.25 42.8932 -15.454
      vertex 24.25 42.7093 -15.7071
      vertex -24.25 42.7093 -15.7071
    endloop
  endfacet
  facet normal 0.127097 0.802457 -0.583018
    outer loop
      vertex 24.25 42.8932 -15.454
      vertex 24.5253 42.8496 -15.454
      vertex 24.25 42.7093 -15.7071
    endloop
  endfacet
  facet normal 0.148952 0.940448 -0.305567
    outer loop
      vertex 24.5552 42.9416 -15.1564
      vertex 24.5253 42.8496 -15.454
      vertex 24.25 42.8932 -15.454
    endloop
  endfacet
  facet normal 0.432273 0.848392 -0.305567
    outer loop
      vertex 24.5552 42.9416 -15.1564
      vertex 24.8305 42.8013 -15.1564
      vertex 24.5253 42.8496 -15.454
    endloop
  endfacet
  facet normal 0.891008 0.453987 0
    outer loop
      vertex 49.2991 0.580549 15
      vertex 49.4393 0.305212 15
      vertex 49.4393 0.305212 -15.1564
    endloop
  endfacet
  facet normal 0.891008 0.453987 0
    outer loop
      vertex 49.2991 0.580549 -15.1564
      vertex 49.2991 0.580549 15
      vertex 49.4393 0.305212 -15.1564
    endloop
  endfacet
  facet normal 0.987688 0.156435 0
    outer loop
      vertex 49.4393 0.305212 15
      vertex 49.4877 0 15
      vertex 49.4877 0 -15.1564
    endloop
  endfacet
  facet normal 0.987688 0.156435 0
    outer loop
      vertex 49.4393 0.305212 -15.1564
      vertex 49.4393 0.305212 15
      vertex 49.4877 0 -15.1564
    endloop
  endfacet
  facet normal 0.987688 -0.156435 0
    outer loop
      vertex 49.4877 0 -15.1564
      vertex 49.4877 0 15
      vertex 49.4393 -0.305212 15
    endloop
  endfacet
  facet normal 0.987688 -0.156435 0
    outer loop
      vertex 49.4393 -0.305212 -15.1564
      vertex 49.4877 0 -15.1564
      vertex 49.4393 -0.305212 15
    endloop
  endfacet
  facet normal 0.891008 -0.453987 0
    outer loop
      vertex 49.4393 -0.305212 -15.1564
      vertex 49.4393 -0.305212 15
      vertex 49.2991 -0.580549 15
    endloop
  endfacet
  facet normal 0.891008 -0.453987 0
    outer loop
      vertex 49.2991 -0.580549 -15.1564
      vertex 49.4393 -0.305212 -15.1564
      vertex 49.2991 -0.580549 15
    endloop
  endfacet
  facet normal 0.432278 0.848387 -0.305573
    outer loop
      vertex 24.8305 42.8013 -15.1564
      vertex 24.7737 42.7231 -15.454
      vertex 24.5253 42.8496 -15.454
    endloop
  endfacet
  facet normal 0.673285 0.673285 -0.305573
    outer loop
      vertex 25.0491 42.5828 -15.1564
      vertex 24.9708 42.526 -15.454
      vertex 24.8305 42.8013 -15.1564
    endloop
  endfacet
  facet normal 0.673285 0.673285 -0.305573
    outer loop
      vertex 24.8305 42.8013 -15.1564
      vertex 24.9708 42.526 -15.454
      vertex 24.7737 42.7231 -15.454
    endloop
  endfacet
  facet normal 0.824068 0.475776 -0.307488
    outer loop
      vertex 25.0491 42.5828 -15.1564
      vertex 49.2991 0.580549 -15.1564
      vertex 49.2208 0.52372 -15.454
    endloop
  endfacet
  facet normal 0.824068 0.475776 -0.307488
    outer loop
      vertex 24.9708 42.526 -15.454
      vertex 25.0491 42.5828 -15.1564
      vertex 49.2208 0.52372 -15.454
    endloop
  endfacet
  facet normal 0.84839 0.432273 -0.305573
    outer loop
      vertex 49.2991 0.580549 -15.1564
      vertex 49.4393 0.305212 -15.1564
      vertex 49.2208 0.52372 -15.454
    endloop
  endfacet
  facet normal 0.432273 -0.84839 -0.305573
    outer loop
      vertex 24.7737 -42.7231 -15.454
      vertex 24.8305 -42.8013 -15.1564
      vertex 24.5552 -42.9416 -15.1564
    endloop
  endfacet
  facet normal 0.432279 -0.848389 -0.305567
    outer loop
      vertex 24.7737 -42.7231 -15.454
      vertex 24.5552 -42.9416 -15.1564
      vertex 24.5253 -42.8496 -15.454
    endloop
  endfacet
  facet normal 0.848392 -0.432273 -0.305567
    outer loop
      vertex 49.3474 -0.275336 -15.454
      vertex 49.4393 -0.305212 -15.1564
      vertex 49.2991 -0.580549 -15.1564
    endloop
  endfacet
  facet normal 0.848387 -0.432278 -0.305573
    outer loop
      vertex 49.3474 -0.275336 -15.454
      vertex 49.2991 -0.580549 -15.1564
      vertex 49.2208 -0.52372 -15.454
    endloop
  endfacet
  facet normal 0.824068 -0.475776 -0.307488
    outer loop
      vertex 49.2208 -0.52372 -15.454
      vertex 49.2991 -0.580549 -15.1564
      vertex 25.0491 -42.5828 -15.1564
    endloop
  endfacet
  facet normal 0.824068 -0.475776 -0.307488
    outer loop
      vertex 24.9708 -42.526 -15.454
      vertex 49.2208 -0.52372 -15.454
      vertex 25.0491 -42.5828 -15.1564
    endloop
  endfacet
  facet normal 0.673285 -0.673285 -0.305573
    outer loop
      vertex 24.9708 -42.526 -15.454
      vertex 25.0491 -42.5828 -15.1564
      vertex 24.8305 -42.8013 -15.1564
    endloop
  endfacet
  facet normal 0.673285 -0.673285 -0.305573
    outer loop
      vertex 24.7737 -42.7231 -15.454
      vertex 24.9708 -42.526 -15.454
      vertex 24.8305 -42.8013 -15.1564
    endloop
  endfacet
  facet normal 0.368851 -0.723906 -0.583017
    outer loop
      vertex 24.6656 -42.5743 -15.7071
      vertex 24.7737 -42.7231 -15.454
      vertex 24.5253 -42.8496 -15.454
    endloop
  endfacet
  facet normal 0.368852 -0.723906 -0.583017
    outer loop
      vertex 24.6656 -42.5743 -15.7071
      vertex 24.5253 -42.8496 -15.454
      vertex 24.4685 -42.6747 -15.7071
    endloop
  endfacet
  facet normal 0.127097 -0.802457 -0.583017
    outer loop
      vertex 24.4685 -42.6747 -15.7071
      vertex 24.5253 -42.8496 -15.454
      vertex 24.25 -42.8932 -15.454
    endloop
  endfacet
  facet normal 0.127096 -0.802457 -0.583018
    outer loop
      vertex 24.25 -42.7093 -15.7071
      vertex 24.4685 -42.6747 -15.7071
      vertex 24.25 -42.8932 -15.454
    endloop
  endfacet
  facet normal 0 -0.809017 -0.587785
    outer loop
      vertex -24.25 -42.7093 -15.7071
      vertex 24.25 -42.7093 -15.7071
      vertex 24.25 -42.8932 -15.454
    endloop
  endfacet
  facet normal 0 -0.809017 -0.587785
    outer loop
      vertex -24.25 -42.8932 -15.454
      vertex -24.25 -42.7093 -15.7071
      vertex 24.25 -42.8932 -15.454
    endloop
  endfacet
  facet normal 0 -0.587785 -0.809017
    outer loop
      vertex 24.25 -42.4562 -15.891
      vertex 24.25 -42.7093 -15.7071
      vertex -24.25 -42.4562 -15.891
    endloop
  endfacet
  facet normal 0 -0.587785 -0.809017
    outer loop
      vertex -24.25 -42.4562 -15.891
      vertex 24.25 -42.7093 -15.7071
      vertex -24.25 -42.7093 -15.7071
    endloop
  endfacet
  facet normal -0.0926914 0.585254 -0.805534
    outer loop
      vertex -24.25 42.7093 -15.7071
      vertex -24.25 42.4562 -15.891
      vertex -24.3903 42.434 -15.891
    endloop
  endfacet
  facet normal 0 0.587785 -0.809017
    outer loop
      vertex 24.25 42.7093 -15.7071
      vertex 24.25 42.4562 -15.891
      vertex -24.25 42.7093 -15.7071
    endloop
  endfacet
  facet normal 0 0.587785 -0.809017
    outer loop
      vertex -24.25 42.7093 -15.7071
      vertex 24.25 42.4562 -15.891
      vertex -24.25 42.4562 -15.891
    endloop
  endfacet
  facet normal 0.0926914 -0.585254 -0.805534
    outer loop
      vertex 24.25 -42.4562 -15.891
      vertex 24.3903 -42.434 -15.891
      vertex 24.25 -42.7093 -15.7071
    endloop
  endfacet
  facet normal 0.0926946 -0.585255 -0.805533
    outer loop
      vertex 24.3903 -42.434 -15.891
      vertex 24.4685 -42.6747 -15.7071
      vertex 24.25 -42.7093 -15.7071
    endloop
  endfacet
  facet normal 0.269014 -0.527966 -0.805533
    outer loop
      vertex 24.5168 -42.3695 -15.891
      vertex 24.4685 -42.6747 -15.7071
      vertex 24.3903 -42.434 -15.891
    endloop
  endfacet
  facet normal 0.269014 -0.527966 -0.805533
    outer loop
      vertex 24.5168 -42.3695 -15.891
      vertex 24.6656 -42.5743 -15.7071
      vertex 24.4685 -42.6747 -15.7071
    endloop
  endfacet
  facet normal 0.418997 -0.418997 -0.805533
    outer loop
      vertex 24.8221 -42.4179 -15.7071
      vertex 24.6656 -42.5743 -15.7071
      vertex 24.6173 -42.2691 -15.891
    endloop
  endfacet
  facet normal 0.418997 -0.418997 -0.805533
    outer loop
      vertex 24.6173 -42.2691 -15.891
      vertex 24.6656 -42.5743 -15.7071
      vertex 24.5168 -42.3695 -15.891
    endloop
  endfacet
  facet normal 0.510868 -0.29495 -0.807477
    outer loop
      vertex 49.0721 -0.415627 -15.7071
      vertex 24.8221 -42.4179 -15.7071
      vertex 48.8673 -0.266849 -15.891
    endloop
  endfacet
  facet normal 0.510868 -0.29495 -0.807477
    outer loop
      vertex 48.8673 -0.266849 -15.891
      vertex 24.8221 -42.4179 -15.7071
      vertex 24.6173 -42.2691 -15.891
    endloop
  endfacet
  facet normal 0.527966 -0.269014 -0.805533
    outer loop
      vertex 48.9318 -0.140291 -15.891
      vertex 49.0721 -0.415627 -15.7071
      vertex 48.8673 -0.266849 -15.891
    endloop
  endfacet
  facet normal 0.527966 -0.269014 -0.805533
    outer loop
      vertex 49.1725 -0.218508 -15.7071
      vertex 49.0721 -0.415627 -15.7071
      vertex 48.9318 -0.140291 -15.891
    endloop
  endfacet
  facet normal 0.585256 -0.0926916 -0.805533
    outer loop
      vertex 48.954 0 -15.891
      vertex 49.1725 -0.218508 -15.7071
      vertex 48.9318 -0.140291 -15.891
    endloop
  endfacet
  facet normal 0.585254 -0.0926944 -0.805534
    outer loop
      vertex 49.2071 0 -15.7071
      vertex 49.1725 -0.218508 -15.7071
      vertex 48.954 0 -15.891
    endloop
  endfacet
  facet normal 0.585254 0.0926914 -0.805534
    outer loop
      vertex 49.2071 0 -15.7071
      vertex 48.954 0 -15.891
      vertex 48.9318 0.140291 -15.891
    endloop
  endfacet
  facet normal 0.527966 0.269014 -0.805533
    outer loop
      vertex 49.1725 0.218508 -15.7071
      vertex 48.9318 0.140291 -15.891
      vertex 48.8673 0.266849 -15.891
    endloop
  endfacet
  facet normal 0.585255 0.0926946 -0.805533
    outer loop
      vertex 49.1725 0.218508 -15.7071
      vertex 49.2071 0 -15.7071
      vertex 48.9318 0.140291 -15.891
    endloop
  endfacet
  facet normal 0.510868 0.29495 -0.807477
    outer loop
      vertex 49.0721 0.415627 -15.7071
      vertex 48.8673 0.266849 -15.891
      vertex 24.8221 42.4179 -15.7071
    endloop
  endfacet
  facet normal 0.510868 0.29495 -0.807477
    outer loop
      vertex 24.8221 42.4179 -15.7071
      vertex 48.8673 0.266849 -15.891
      vertex 24.6173 42.2691 -15.891
    endloop
  endfacet
  facet normal 0.527966 0.269014 -0.805533
    outer loop
      vertex 49.0721 0.415627 -15.7071
      vertex 49.1725 0.218508 -15.7071
      vertex 48.8673 0.266849 -15.891
    endloop
  endfacet
  facet normal 0.418997 0.418997 -0.805533
    outer loop
      vertex 24.8221 42.4179 -15.7071
      vertex 24.6173 42.2691 -15.891
      vertex 24.6656 42.5743 -15.7071
    endloop
  endfacet
  facet normal 0.418997 0.418997 -0.805533
    outer loop
      vertex 24.6656 42.5743 -15.7071
      vertex 24.6173 42.2691 -15.891
      vertex 24.5168 42.3695 -15.891
    endloop
  endfacet
  facet normal 0.269014 0.527966 -0.805533
    outer loop
      vertex 24.6656 42.5743 -15.7071
      vertex 24.5168 42.3695 -15.891
      vertex 24.3903 42.434 -15.891
    endloop
  endfacet
  facet normal 0.0926916 0.585256 -0.805533
    outer loop
      vertex 24.4685 42.6747 -15.7071
      vertex 24.3903 42.434 -15.891
      vertex 24.25 42.4562 -15.891
    endloop
  endfacet
  facet normal 0.269014 0.527966 -0.805533
    outer loop
      vertex 24.4685 42.6747 -15.7071
      vertex 24.6656 42.5743 -15.7071
      vertex 24.3903 42.434 -15.891
    endloop
  endfacet
  facet normal 0.0926944 0.585254 -0.805534
    outer loop
      vertex 24.25 42.7093 -15.7071
      vertex 24.4685 42.6747 -15.7071
      vertex 24.25 42.4562 -15.891
    endloop
  endfacet
  facet normal 0.127096 0.802457 -0.583017
    outer loop
      vertex 24.5253 42.8496 -15.454
      vertex 24.4685 42.6747 -15.7071
      vertex 24.25 42.7093 -15.7071
    endloop
  endfacet
  facet normal 0.368851 0.723906 -0.583017
    outer loop
      vertex 24.5253 42.8496 -15.454
      vertex 24.7737 42.7231 -15.454
      vertex 24.4685 42.6747 -15.7071
    endloop
  endfacet
  facet normal 0.848389 0.432279 -0.305567
    outer loop
      vertex 49.4393 0.305212 -15.1564
      vertex 49.3474 0.275336 -15.454
      vertex 49.2208 0.52372 -15.454
    endloop
  endfacet
  facet normal 0.940448 0.148953 -0.305567
    outer loop
      vertex 49.4393 0.305212 -15.1564
      vertex 49.4877 0 -15.1564
      vertex 49.3474 0.275336 -15.454
    endloop
  endfacet
  facet normal 0.940448 0.148952 -0.305567
    outer loop
      vertex 49.4877 0 -15.1564
      vertex 49.391 0 -15.454
      vertex 49.3474 0.275336 -15.454
    endloop
  endfacet
  facet normal 0.940448 -0.148953 -0.305567
    outer loop
      vertex 49.4877 0 -15.1564
      vertex 49.4393 -0.305212 -15.1564
      vertex 49.391 0 -15.454
    endloop
  endfacet
  facet normal 0.940448 -0.148952 -0.305567
    outer loop
      vertex 49.391 0 -15.454
      vertex 49.4393 -0.305212 -15.1564
      vertex 49.3474 -0.275336 -15.454
    endloop
  endfacet
  facet normal 0.368852 0.723906 -0.583017
    outer loop
      vertex 24.7737 42.7231 -15.454
      vertex 24.6656 42.5743 -15.7071
      vertex 24.4685 42.6747 -15.7071
    endloop
  endfacet
  facet normal 0.574496 0.574496 -0.583017
    outer loop
      vertex 24.9708 42.526 -15.454
      vertex 24.8221 42.4179 -15.7071
      vertex 24.7737 42.7231 -15.454
    endloop
  endfacet
  facet normal 0.574496 0.574496 -0.583017
    outer loop
      vertex 24.7737 42.7231 -15.454
      vertex 24.8221 42.4179 -15.7071
      vertex 24.6656 42.5743 -15.7071
    endloop
  endfacet
  facet normal 0.701957 0.405275 -0.58567
    outer loop
      vertex 24.9708 42.526 -15.454
      vertex 49.2208 0.52372 -15.454
      vertex 49.0721 0.415627 -15.7071
    endloop
  endfacet
  facet normal 0.701957 0.405275 -0.58567
    outer loop
      vertex 24.8221 42.4179 -15.7071
      vertex 24.9708 42.526 -15.454
      vertex 49.0721 0.415627 -15.7071
    endloop
  endfacet
  facet normal 0.723906 0.368851 -0.583017
    outer loop
      vertex 49.2208 0.52372 -15.454
      vertex 49.3474 0.275336 -15.454
      vertex 49.0721 0.415627 -15.7071
    endloop
  endfacet
  facet normal 0.574496 -0.574496 -0.583017
    outer loop
      vertex 24.9708 -42.526 -15.454
      vertex 24.7737 -42.7231 -15.454
      vertex 24.8221 -42.4179 -15.7071
    endloop
  endfacet
  facet normal 0.574496 -0.574496 -0.583017
    outer loop
      vertex 24.8221 -42.4179 -15.7071
      vertex 24.7737 -42.7231 -15.454
      vertex 24.6656 -42.5743 -15.7071
    endloop
  endfacet
  facet normal 0.802457 -0.127097 -0.583018
    outer loop
      vertex 49.391 0 -15.454
      vertex 49.3474 -0.275336 -15.454
      vertex 49.2071 0 -15.7071
    endloop
  endfacet
  facet normal 0.802457 -0.127096 -0.583017
    outer loop
      vertex 49.2071 0 -15.7071
      vertex 49.3474 -0.275336 -15.454
      vertex 49.1725 -0.218508 -15.7071
    endloop
  endfacet
  facet normal 0.723906 -0.368851 -0.583017
    outer loop
      vertex 49.3474 -0.275336 -15.454
      vertex 49.2208 -0.52372 -15.454
      vertex 49.1725 -0.218508 -15.7071
    endloop
  endfacet
  facet normal 0.723906 -0.368852 -0.583017
    outer loop
      vertex 49.1725 -0.218508 -15.7071
      vertex 49.2208 -0.52372 -15.454
      vertex 49.0721 -0.415627 -15.7071
    endloop
  endfacet
  facet normal 0.701957 -0.405275 -0.58567
    outer loop
      vertex 49.0721 -0.415627 -15.7071
      vertex 49.2208 -0.52372 -15.454
      vertex 24.9708 -42.526 -15.454
    endloop
  endfacet
  facet normal 0.701957 -0.405275 -0.58567
    outer loop
      vertex 24.8221 -42.4179 -15.7071
      vertex 49.0721 -0.415627 -15.7071
      vertex 24.9708 -42.526 -15.454
    endloop
  endfacet
  facet normal 0.802457 0.127096 -0.583018
    outer loop
      vertex 49.391 0 -15.454
      vertex 49.2071 0 -15.7071
      vertex 49.1725 0.218508 -15.7071
    endloop
  endfacet
  facet normal 0.723906 0.368852 -0.583017
    outer loop
      vertex 49.3474 0.275336 -15.454
      vertex 49.1725 0.218508 -15.7071
      vertex 49.0721 0.415627 -15.7071
    endloop
  endfacet
  facet normal 0.802457 0.127097 -0.583017
    outer loop
      vertex 49.3474 0.275336 -15.454
      vertex 49.391 0 -15.454
      vertex 49.1725 0.218508 -15.7071
    endloop
  endfacet
endsolid OpenSCAD_Model
