solid OpenSCAD_Model
  facet normal 0 0 -1
    outer loop
      vertex -27.525 30.3253 49
      vertex -25 43.3013 49
      vertex -25 -43.3013 49
    endloop
  endfacet
  facet normal 0 0 -1
    outer loop
      vertex 7.5 41 49
      vertex -25 43.3013 49
      vertex 25 43.3013 49
    endloop
  endfacet
  facet normal 0 0 -1
    outer loop
      vertex 39.257 14.0048 49
      vertex 25 43.3013 49
      vertex 50 0 49
    endloop
  endfacet
  facet normal 0 0 -1
    outer loop
      vertex 29.257 -31.3253 49
      vertex 50 0 49
      vertex 25 -43.3013 49
    endloop
  endfacet
  facet normal 0 0 -1
    outer loop
      vertex -27.525 30.3253 49
      vertex -40.025 -8.67468 49
      vertex -30.025 25.9952 49
    endloop
  endfacet
  facet normal 0 0 -1
    outer loop
      vertex -50 0 49
      vertex -40.025 -8.67468 49
      vertex -41.757 -9.67468 49
    endloop
  endfacet
  facet normal 0 0 -1
    outer loop
      vertex -50 0 49
      vertex -41.757 -9.67468 49
      vertex -25 -43.3013 49
    endloop
  endfacet
  facet normal 0 0 -1
    outer loop
      vertex -41.757 -9.67468 49
      vertex -39.257 -14.0048 49
      vertex -25 -43.3013 49
    endloop
  endfacet
  facet normal 0 0 -1
    outer loop
      vertex -27.525 30.3253 49
      vertex -37.525 -13.0048 49
      vertex -40.025 -8.67468 49
    endloop
  endfacet
  facet normal 0 0 -1
    outer loop
      vertex -50 0 49
      vertex -25 43.3013 49
      vertex -31.757 26.9952 49
    endloop
  endfacet
  facet normal 0 0 -1
    outer loop
      vertex -50 0 49
      vertex -31.757 26.9952 49
      vertex -40.025 -8.67468 49
    endloop
  endfacet
  facet normal 0 0 -1
    outer loop
      vertex -7.5 -39 49
      vertex 25 -43.3013 49
      vertex -7.5 -41 49
    endloop
  endfacet
  facet normal 0 0 -1
    outer loop
      vertex -31.757 26.9952 49
      vertex -30.025 25.9952 49
      vertex -40.025 -8.67468 49
    endloop
  endfacet
  facet normal 0 0 -1
    outer loop
      vertex -29.257 31.3253 49
      vertex -25 43.3013 49
      vertex -27.525 30.3253 49
    endloop
  endfacet
  facet normal 0 0 -1
    outer loop
      vertex -37.525 -13.0048 49
      vertex -27.525 30.3253 49
      vertex -25 -43.3013 49
    endloop
  endfacet
  facet normal 0 0 -1
    outer loop
      vertex -31.757 26.9952 49
      vertex -25 43.3013 49
      vertex -29.257 31.3253 49
    endloop
  endfacet
  facet normal 0 0 -1
    outer loop
      vertex -25 -43.3013 49
      vertex 50 0 49
      vertex -12.5 -39 49
    endloop
  endfacet
  facet normal 0 0 -1
    outer loop
      vertex -25 -43.3013 49
      vertex -12.5 -39 49
      vertex -12.5 -41 49
    endloop
  endfacet
  facet normal 0 0 -1
    outer loop
      vertex -25 -43.3013 49
      vertex -12.5 -41 49
      vertex 25 -43.3013 49
    endloop
  endfacet
  facet normal 0 0 -1
    outer loop
      vertex -12.5 -41 49
      vertex -7.5 -41 49
      vertex 25 -43.3013 49
    endloop
  endfacet
  facet normal 0 0 -1
    outer loop
      vertex -12.5 -39 49
      vertex 50 0 49
      vertex -7.5 -39 49
    endloop
  endfacet
  facet normal 0 0 -1
    outer loop
      vertex 12.5 41 49
      vertex 25 43.3013 49
      vertex 12.5 39 49
    endloop
  endfacet
  facet normal 0 0 -1
    outer loop
      vertex -25 -43.3013 49
      vertex -25 43.3013 49
      vertex 7.5 41 49
    endloop
  endfacet
  facet normal 0 0 -1
    outer loop
      vertex 12.5 41 49
      vertex 7.5 41 49
      vertex 25 43.3013 49
    endloop
  endfacet
  facet normal 0 0 -1
    outer loop
      vertex -25 -43.3013 49
      vertex 7.5 41 49
      vertex 7.5 39 49
    endloop
  endfacet
  facet normal 0 0 -1
    outer loop
      vertex -25 -43.3013 49
      vertex 7.5 39 49
      vertex 12.5 39 49
    endloop
  endfacet
  facet normal 0 0 -1
    outer loop
      vertex -25 -43.3013 49
      vertex 12.5 39 49
      vertex 25 43.3013 49
    endloop
  endfacet
  facet normal 0 0 -1
    outer loop
      vertex 30.025 -25.9952 49
      vertex 50 0 49
      vertex 31.757 -26.9952 49
    endloop
  endfacet
  facet normal 0 0 -1
    outer loop
      vertex 40.025 8.67468 49
      vertex -25 -43.3013 49
      vertex 37.525 13.0048 49
    endloop
  endfacet
  facet normal 0 0 -1
    outer loop
      vertex -7.5 -39 49
      vertex 27.525 -30.3253 49
      vertex 25 -43.3013 49
    endloop
  endfacet
  facet normal 0 0 -1
    outer loop
      vertex 31.757 -26.9952 49
      vertex 50 0 49
      vertex 29.257 -31.3253 49
    endloop
  endfacet
  facet normal 0 0 -1
    outer loop
      vertex 27.525 -30.3253 49
      vertex 29.257 -31.3253 49
      vertex 25 -43.3013 49
    endloop
  endfacet
  facet normal 0 0 -1
    outer loop
      vertex -7.5 -39 49
      vertex 50 0 49
      vertex 30.025 -25.9952 49
    endloop
  endfacet
  facet normal 0 0 -1
    outer loop
      vertex -7.5 -39 49
      vertex 30.025 -25.9952 49
      vertex 27.525 -30.3253 49
    endloop
  endfacet
  facet normal 0 0 -1
    outer loop
      vertex 37.525 13.0048 49
      vertex 25 43.3013 49
      vertex 39.257 14.0048 49
    endloop
  endfacet
  facet normal 0 0 -1
    outer loop
      vertex 41.757 9.67468 49
      vertex 39.257 14.0048 49
      vertex 50 0 49
    endloop
  endfacet
  facet normal 0 0 -1
    outer loop
      vertex -25 -43.3013 49
      vertex 25 43.3013 49
      vertex 37.525 13.0048 49
    endloop
  endfacet
  facet normal 0 0 -1
    outer loop
      vertex -25 -43.3013 49
      vertex 40.025 8.67468 49
      vertex 50 0 49
    endloop
  endfacet
  facet normal 0 0 -1
    outer loop
      vertex 40.025 8.67468 49
      vertex 41.757 9.67468 49
      vertex 50 0 49
    endloop
  endfacet
  facet normal 0 0 -1
    outer loop
      vertex -37.525 -13.0048 49
      vertex -25 -43.3013 49
      vertex -39.257 -14.0048 49
    endloop
  endfacet
  facet normal -0.866025 0.5 0
    outer loop
      vertex -50 0 49
      vertex -50 0 51
      vertex -25 43.3013 49
    endloop
  endfacet
  facet normal -0.866025 0.5 0
    outer loop
      vertex -25 43.3013 49
      vertex -50 0 51
      vertex -25 43.3013 51
    endloop
  endfacet
  facet normal -0.866025 -0.5 0
    outer loop
      vertex -50 0 49
      vertex -25 -43.3013 49
      vertex -50 0 51
    endloop
  endfacet
  facet normal -0.866025 -0.5 0
    outer loop
      vertex -50 0 51
      vertex -25 -43.3013 49
      vertex -25 -43.3013 51
    endloop
  endfacet
  facet normal 0 -1 0
    outer loop
      vertex -25 -43.3013 51
      vertex -25 -43.3013 49
      vertex 25 -43.3013 49
    endloop
  endfacet
  facet normal 0 -1 0
    outer loop
      vertex 25 -43.3013 51
      vertex -25 -43.3013 51
      vertex 25 -43.3013 49
    endloop
  endfacet
  facet normal 0.866025 -0.5 0
    outer loop
      vertex 25 -43.3013 51
      vertex 25 -43.3013 49
      vertex 50 0 49
    endloop
  endfacet
  facet normal 0.866025 -0.5 0
    outer loop
      vertex 50 0 51
      vertex 25 -43.3013 51
      vertex 50 0 49
    endloop
  endfacet
  facet normal 0.866025 0.5 0
    outer loop
      vertex 50 0 49
      vertex 25 43.3013 49
      vertex 25 43.3013 51
    endloop
  endfacet
  facet normal 0.866025 0.5 0
    outer loop
      vertex 50 0 51
      vertex 50 0 49
      vertex 25 43.3013 51
    endloop
  endfacet
  facet normal 0 1 0
    outer loop
      vertex -25 43.3013 49
      vertex -25 43.3013 51
      vertex 25 43.3013 49
    endloop
  endfacet
  facet normal 0 1 0
    outer loop
      vertex 25 43.3013 49
      vertex -25 43.3013 51
      vertex 25 43.3013 51
    endloop
  endfacet
  facet normal -0.5 0.866025 0
    outer loop
      vertex -43.4891 -10.6747 45.4021
      vertex -43.4891 -10.6747 45.8333
      vertex -43.322 -10.5782 45.595
    endloop
  endfacet
  facet normal -0.5 0.866025 0
    outer loop
      vertex -43.322 -10.5782 45.595
      vertex -43.4891 -10.6747 45.8333
      vertex -41.757 -9.67468 45.8333
    endloop
  endfacet
  facet normal -0.5 0.866025 0
    outer loop
      vertex -41.757 -9.67468 49
      vertex -40.025 -8.67468 49
      vertex -41.757 -9.67468 45.8333
    endloop
  endfacet
  facet normal -0.5 0.866025 0
    outer loop
      vertex -40.025 -8.67468 49
      vertex -40.025 -8.67468 41.788
      vertex -41.757 -9.67468 45.8333
    endloop
  endfacet
  facet normal -0.5 0.866025 0
    outer loop
      vertex -43.322 -10.5782 45.595
      vertex -41.757 -9.67468 45.8333
      vertex -40.025 -8.67468 41.788
    endloop
  endfacet
  facet normal 0.866025 0.5 0
    outer loop
      vertex -37.525 -13.0048 41.788
      vertex -40.025 -8.67468 41.788
      vertex -40.025 -8.67468 49
    endloop
  endfacet
  facet normal 0.866025 0.5 0
    outer loop
      vertex -37.525 -13.0048 49
      vertex -37.525 -13.0048 41.788
      vertex -40.025 -8.67468 49
    endloop
  endfacet
  facet normal 0.5 -0.866025 0
    outer loop
      vertex -40.9891 -15.0048 45.8333
      vertex -40.9891 -15.0048 45.4021
      vertex -40.822 -14.9083 45.595
    endloop
  endfacet
  facet normal 0.5 -0.866025 0
    outer loop
      vertex -37.525 -13.0048 41.788
      vertex -40.9891 -15.0048 45.8333
      vertex -40.822 -14.9083 45.595
    endloop
  endfacet
  facet normal 0.5 -0.866025 0
    outer loop
      vertex -37.525 -13.0048 41.788
      vertex -39.257 -14.0048 45.8333
      vertex -40.9891 -15.0048 45.8333
    endloop
  endfacet
  facet normal 0.5 -0.866025 0
    outer loop
      vertex -37.525 -13.0048 41.788
      vertex -37.525 -13.0048 49
      vertex -39.257 -14.0048 45.8333
    endloop
  endfacet
  facet normal 0.5 -0.866025 0
    outer loop
      vertex -39.257 -14.0048 49
      vertex -39.257 -14.0048 45.8333
      vertex -37.525 -13.0048 49
    endloop
  endfacet
  facet normal -0.866025 -0.5 0
    outer loop
      vertex -41.757 -9.67468 45.8333
      vertex -39.257 -14.0048 45.8333
      vertex -41.757 -9.67468 49
    endloop
  endfacet
  facet normal -0.866025 -0.5 0
    outer loop
      vertex -41.757 -9.67468 49
      vertex -39.257 -14.0048 45.8333
      vertex -39.257 -14.0048 49
    endloop
  endfacet
  facet normal -0.5 -0.866025 0
    outer loop
      vertex -33.4891 27.9952 45.8333
      vertex -33.4891 27.9952 45.4021
      vertex -33.322 27.8987 45.595
    endloop
  endfacet
  facet normal -0.5 -0.866025 0
    outer loop
      vertex -30.025 25.9952 41.788
      vertex -33.4891 27.9952 45.8333
      vertex -33.322 27.8987 45.595
    endloop
  endfacet
  facet normal -0.5 -0.866025 0
    outer loop
      vertex -30.025 25.9952 41.788
      vertex -31.757 26.9952 45.8333
      vertex -33.4891 27.9952 45.8333
    endloop
  endfacet
  facet normal -0.5 -0.866025 0
    outer loop
      vertex -30.025 25.9952 41.788
      vertex -30.025 25.9952 49
      vertex -31.757 26.9952 45.8333
    endloop
  endfacet
  facet normal -0.5 -0.866025 0
    outer loop
      vertex -31.757 26.9952 49
      vertex -31.757 26.9952 45.8333
      vertex -30.025 25.9952 49
    endloop
  endfacet
  facet normal -0.866025 0.5 0
    outer loop
      vertex -31.757 26.9952 45.8333
      vertex -31.757 26.9952 49
      vertex -29.257 31.3253 45.8333
    endloop
  endfacet
  facet normal -0.866025 0.5 0
    outer loop
      vertex -29.257 31.3253 45.8333
      vertex -31.757 26.9952 49
      vertex -29.257 31.3253 49
    endloop
  endfacet
  facet normal 0.5 0.866025 0
    outer loop
      vertex -30.9891 32.3253 45.4021
      vertex -30.9891 32.3253 45.8333
      vertex -30.822 32.2288 45.595
    endloop
  endfacet
  facet normal 0.5 0.866025 0
    outer loop
      vertex -30.822 32.2288 45.595
      vertex -30.9891 32.3253 45.8333
      vertex -29.257 31.3253 45.8333
    endloop
  endfacet
  facet normal 0.5 0.866025 0
    outer loop
      vertex -29.257 31.3253 49
      vertex -27.525 30.3253 49
      vertex -29.257 31.3253 45.8333
    endloop
  endfacet
  facet normal 0.5 0.866025 0
    outer loop
      vertex -27.525 30.3253 49
      vertex -27.525 30.3253 41.788
      vertex -29.257 31.3253 45.8333
    endloop
  endfacet
  facet normal 0.5 0.866025 0
    outer loop
      vertex -30.822 32.2288 45.595
      vertex -29.257 31.3253 45.8333
      vertex -27.525 30.3253 41.788
    endloop
  endfacet
  facet normal 0.866025 -0.5 0
    outer loop
      vertex -30.025 25.9952 49
      vertex -30.025 25.9952 41.788
      vertex -27.525 30.3253 41.788
    endloop
  endfacet
  facet normal 0.866025 -0.5 0
    outer loop
      vertex -27.525 30.3253 49
      vertex -30.025 25.9952 49
      vertex -27.525 30.3253 41.788
    endloop
  endfacet
  facet normal -1 4.44089e-16 0
    outer loop
      vertex -12.5 -43 45.4021
      vertex -12.5 -43 45.8333
      vertex -12.5 -42.8071 45.595
    endloop
  endfacet
  facet normal -1 4.44089e-16 0
    outer loop
      vertex -12.5 -42.8071 45.595
      vertex -12.5 -43 45.8333
      vertex -12.5 -41 45.8333
    endloop
  endfacet
  facet normal -1 4.44089e-16 0
    outer loop
      vertex -12.5 -41 49
      vertex -12.5 -39 49
      vertex -12.5 -41 45.8333
    endloop
  endfacet
  facet normal -1 4.44089e-16 0
    outer loop
      vertex -12.5 -39 49
      vertex -12.5 -39 41.788
      vertex -12.5 -41 45.8333
    endloop
  endfacet
  facet normal -1 4.44089e-16 0
    outer loop
      vertex -12.5 -42.8071 45.595
      vertex -12.5 -41 45.8333
      vertex -12.5 -39 41.788
    endloop
  endfacet
  facet normal 4.44089e-16 1 0
    outer loop
      vertex -12.5 -39 41.788
      vertex -12.5 -39 49
      vertex -7.5 -39 41.788
    endloop
  endfacet
  facet normal 4.44089e-16 1 0
    outer loop
      vertex -7.5 -39 41.788
      vertex -12.5 -39 49
      vertex -7.5 -39 49
    endloop
  endfacet
  facet normal 1 -4.44089e-16 0
    outer loop
      vertex -7.5 -43 45.8333
      vertex -7.5 -43 45.4021
      vertex -7.5 -42.8071 45.595
    endloop
  endfacet
  facet normal 1 -4.44089e-16 0
    outer loop
      vertex -7.5 -39 41.788
      vertex -7.5 -43 45.8333
      vertex -7.5 -42.8071 45.595
    endloop
  endfacet
  facet normal 1 -4.44089e-16 0
    outer loop
      vertex -7.5 -39 41.788
      vertex -7.5 -41 45.8333
      vertex -7.5 -43 45.8333
    endloop
  endfacet
  facet normal 1 -4.44089e-16 0
    outer loop
      vertex -7.5 -39 41.788
      vertex -7.5 -39 49
      vertex -7.5 -41 45.8333
    endloop
  endfacet
  facet normal 1 -4.44089e-16 0
    outer loop
      vertex -7.5 -41 49
      vertex -7.5 -41 45.8333
      vertex -7.5 -39 49
    endloop
  endfacet
  facet normal -4.44089e-16 -1 0
    outer loop
      vertex -12.5 -41 49
      vertex -12.5 -41 45.8333
      vertex -7.5 -41 45.8333
    endloop
  endfacet
  facet normal -4.44089e-16 -1 0
    outer loop
      vertex -7.5 -41 49
      vertex -12.5 -41 49
      vertex -7.5 -41 45.8333
    endloop
  endfacet
  facet normal -1 4.44089e-16 0
    outer loop
      vertex 7.5 43 45.8333
      vertex 7.5 42.8071 45.595
      vertex 7.5 41 45.8333
    endloop
  endfacet
  facet normal -1 4.44089e-16 0
    outer loop
      vertex 7.5 39 41.788
      vertex 7.5 39 49
      vertex 7.5 41 45.8333
    endloop
  endfacet
  facet normal -1 4.44089e-16 0
    outer loop
      vertex 7.5 39 41.788
      vertex 7.5 41 45.8333
      vertex 7.5 42.8071 45.595
    endloop
  endfacet
  facet normal -1 4.44089e-16 0
    outer loop
      vertex 7.5 42.8071 45.595
      vertex 7.5 43 45.8333
      vertex 7.5 43 45.4021
    endloop
  endfacet
  facet normal -1 4.44089e-16 0
    outer loop
      vertex 7.5 41 45.8333
      vertex 7.5 39 49
      vertex 7.5 41 49
    endloop
  endfacet
  facet normal 4.44089e-16 1 0
    outer loop
      vertex 7.5 41 45.8333
      vertex 7.5 41 49
      vertex 12.5 41 45.8333
    endloop
  endfacet
  facet normal 4.44089e-16 1 0
    outer loop
      vertex 12.5 41 45.8333
      vertex 7.5 41 49
      vertex 12.5 41 49
    endloop
  endfacet
  facet normal 1 -4.44089e-16 0
    outer loop
      vertex 12.5 41 45.8333
      vertex 12.5 39 41.788
      vertex 12.5 42.8071 45.595
    endloop
  endfacet
  facet normal 1 -4.44089e-16 0
    outer loop
      vertex 12.5 41 45.8333
      vertex 12.5 41 49
      vertex 12.5 39 49
    endloop
  endfacet
  facet normal 1 -4.44089e-16 0
    outer loop
      vertex 12.5 43 45.4021
      vertex 12.5 43 45.8333
      vertex 12.5 42.8071 45.595
    endloop
  endfacet
  facet normal 1 -4.44089e-16 0
    outer loop
      vertex 12.5 39 49
      vertex 12.5 39 41.788
      vertex 12.5 41 45.8333
    endloop
  endfacet
  facet normal 1 -4.44089e-16 0
    outer loop
      vertex 12.5 43 45.8333
      vertex 12.5 41 45.8333
      vertex 12.5 42.8071 45.595
    endloop
  endfacet
  facet normal -4.44089e-16 -1 0
    outer loop
      vertex 7.5 39 49
      vertex 7.5 39 41.788
      vertex 12.5 39 41.788
    endloop
  endfacet
  facet normal -4.44089e-16 -1 0
    outer loop
      vertex 12.5 39 49
      vertex 7.5 39 49
      vertex 12.5 39 41.788
    endloop
  endfacet
  facet normal -0.5 -0.866025 0
    outer loop
      vertex 29.257 -31.3253 45.8333
      vertex 27.525 -30.3253 41.788
      vertex 30.822 -32.2288 45.595
    endloop
  endfacet
  facet normal -0.5 -0.866025 0
    outer loop
      vertex 29.257 -31.3253 45.8333
      vertex 29.257 -31.3253 49
      vertex 27.525 -30.3253 49
    endloop
  endfacet
  facet normal -0.5 -0.866025 0
    outer loop
      vertex 30.9891 -32.3253 45.4021
      vertex 30.9891 -32.3253 45.8333
      vertex 30.822 -32.2288 45.595
    endloop
  endfacet
  facet normal -0.5 -0.866025 0
    outer loop
      vertex 27.525 -30.3253 49
      vertex 27.525 -30.3253 41.788
      vertex 29.257 -31.3253 45.8333
    endloop
  endfacet
  facet normal -0.5 -0.866025 0
    outer loop
      vertex 30.9891 -32.3253 45.8333
      vertex 29.257 -31.3253 45.8333
      vertex 30.822 -32.2288 45.595
    endloop
  endfacet
  facet normal -0.866025 0.5 0
    outer loop
      vertex 27.525 -30.3253 41.788
      vertex 27.525 -30.3253 49
      vertex 30.025 -25.9952 41.788
    endloop
  endfacet
  facet normal -0.866025 0.5 0
    outer loop
      vertex 30.025 -25.9952 41.788
      vertex 27.525 -30.3253 49
      vertex 30.025 -25.9952 49
    endloop
  endfacet
  facet normal 0.5 0.866025 0
    outer loop
      vertex 33.4891 -27.9952 45.8333
      vertex 33.322 -27.8987 45.595
      vertex 31.757 -26.9952 45.8333
    endloop
  endfacet
  facet normal 0.5 0.866025 0
    outer loop
      vertex 30.025 -25.9952 41.788
      vertex 30.025 -25.9952 49
      vertex 31.757 -26.9952 45.8333
    endloop
  endfacet
  facet normal 0.5 0.866025 0
    outer loop
      vertex 30.025 -25.9952 41.788
      vertex 31.757 -26.9952 45.8333
      vertex 33.322 -27.8987 45.595
    endloop
  endfacet
  facet normal 0.5 0.866025 0
    outer loop
      vertex 33.322 -27.8987 45.595
      vertex 33.4891 -27.9952 45.8333
      vertex 33.4891 -27.9952 45.4021
    endloop
  endfacet
  facet normal 0.5 0.866025 0
    outer loop
      vertex 31.757 -26.9952 45.8333
      vertex 30.025 -25.9952 49
      vertex 31.757 -26.9952 49
    endloop
  endfacet
  facet normal 0.866025 -0.5 0
    outer loop
      vertex 29.257 -31.3253 49
      vertex 29.257 -31.3253 45.8333
      vertex 31.757 -26.9952 45.8333
    endloop
  endfacet
  facet normal 0.866025 -0.5 0
    outer loop
      vertex 31.757 -26.9952 49
      vertex 29.257 -31.3253 49
      vertex 31.757 -26.9952 45.8333
    endloop
  endfacet
  facet normal -0.5 0.866025 0
    outer loop
      vertex 40.9891 15.0048 45.8333
      vertex 40.822 14.9083 45.595
      vertex 39.257 14.0048 45.8333
    endloop
  endfacet
  facet normal -0.5 0.866025 0
    outer loop
      vertex 37.525 13.0048 41.788
      vertex 37.525 13.0048 49
      vertex 39.257 14.0048 45.8333
    endloop
  endfacet
  facet normal -0.5 0.866025 0
    outer loop
      vertex 37.525 13.0048 41.788
      vertex 39.257 14.0048 45.8333
      vertex 40.822 14.9083 45.595
    endloop
  endfacet
  facet normal -0.5 0.866025 0
    outer loop
      vertex 40.822 14.9083 45.595
      vertex 40.9891 15.0048 45.8333
      vertex 40.9891 15.0048 45.4021
    endloop
  endfacet
  facet normal -0.5 0.866025 0
    outer loop
      vertex 39.257 14.0048 45.8333
      vertex 37.525 13.0048 49
      vertex 39.257 14.0048 49
    endloop
  endfacet
  facet normal 0.866025 0.5 0
    outer loop
      vertex 41.757 9.67468 45.8333
      vertex 39.257 14.0048 45.8333
      vertex 39.257 14.0048 49
    endloop
  endfacet
  facet normal 0.866025 0.5 0
    outer loop
      vertex 41.757 9.67468 49
      vertex 41.757 9.67468 45.8333
      vertex 39.257 14.0048 49
    endloop
  endfacet
  facet normal 0.5 -0.866025 0
    outer loop
      vertex 41.757 9.67468 45.8333
      vertex 40.025 8.67468 41.788
      vertex 43.322 10.5782 45.595
    endloop
  endfacet
  facet normal 0.5 -0.866025 0
    outer loop
      vertex 41.757 9.67468 45.8333
      vertex 41.757 9.67468 49
      vertex 40.025 8.67468 49
    endloop
  endfacet
  facet normal 0.5 -0.866025 0
    outer loop
      vertex 43.4891 10.6747 45.4021
      vertex 43.4891 10.6747 45.8333
      vertex 43.322 10.5782 45.595
    endloop
  endfacet
  facet normal 0.5 -0.866025 0
    outer loop
      vertex 40.025 8.67468 49
      vertex 40.025 8.67468 41.788
      vertex 41.757 9.67468 45.8333
    endloop
  endfacet
  facet normal 0.5 -0.866025 0
    outer loop
      vertex 43.4891 10.6747 45.8333
      vertex 41.757 9.67468 45.8333
      vertex 43.322 10.5782 45.595
    endloop
  endfacet
  facet normal -0.866025 -0.5 0
    outer loop
      vertex 37.525 13.0048 41.788
      vertex 40.025 8.67468 41.788
      vertex 37.525 13.0048 49
    endloop
  endfacet
  facet normal -0.866025 -0.5 0
    outer loop
      vertex 37.525 13.0048 49
      vertex 40.025 8.67468 41.788
      vertex 40.025 8.67468 49
    endloop
  endfacet
  facet normal 0 0 1
    outer loop
      vertex -25 43.3013 51
      vertex -50 0 51
      vertex -25 -43.3013 51
    endloop
  endfacet
  facet normal 0 0 1
    outer loop
      vertex 50 0 51
      vertex -25 43.3013 51
      vertex 25 -43.3013 51
    endloop
  endfacet
  facet normal 0 0 1
    outer loop
      vertex 25 -43.3013 51
      vertex -25 43.3013 51
      vertex -25 -43.3013 51
    endloop
  endfacet
  facet normal 0 0 1
    outer loop
      vertex 25 43.3013 51
      vertex -25 43.3013 51
      vertex 50 0 51
    endloop
  endfacet
  facet normal 0.612372 0.353553 -0.707107
    outer loop
      vertex -40.822 -14.9083 45.595
      vertex -40.9891 -15.0048 45.4021
      vertex -43.322 -10.5782 45.595
    endloop
  endfacet
  facet normal 0.612372 0.353553 -0.707107
    outer loop
      vertex -43.322 -10.5782 45.595
      vertex -40.9891 -15.0048 45.4021
      vertex -43.4891 -10.6747 45.4021
    endloop
  endfacet
  facet normal -0.612372 -0.353553 -0.707107
    outer loop
      vertex -37.525 -13.0048 41.788
      vertex -40.822 -14.9083 45.595
      vertex -40.025 -8.67468 41.788
    endloop
  endfacet
  facet normal -0.612372 -0.353553 -0.707107
    outer loop
      vertex -40.025 -8.67468 41.788
      vertex -40.822 -14.9083 45.595
      vertex -43.322 -10.5782 45.595
    endloop
  endfacet
  facet normal 0 0 1
    outer loop
      vertex -41.757 -9.67468 45.8333
      vertex -43.4891 -10.6747 45.8333
      vertex -40.9891 -15.0048 45.8333
    endloop
  endfacet
  facet normal 0 0 1
    outer loop
      vertex -39.257 -14.0048 45.8333
      vertex -41.757 -9.67468 45.8333
      vertex -40.9891 -15.0048 45.8333
    endloop
  endfacet
  facet normal -0.866025 -0.5 0
    outer loop
      vertex -43.4891 -10.6747 45.4021
      vertex -40.9891 -15.0048 45.4021
      vertex -43.4891 -10.6747 45.8333
    endloop
  endfacet
  facet normal -0.866025 -0.5 0
    outer loop
      vertex -43.4891 -10.6747 45.8333
      vertex -40.9891 -15.0048 45.4021
      vertex -40.9891 -15.0048 45.8333
    endloop
  endfacet
  facet normal -0.866025 0.5 0
    outer loop
      vertex -33.4891 27.9952 45.4021
      vertex -33.4891 27.9952 45.8333
      vertex -30.9891 32.3253 45.4021
    endloop
  endfacet
  facet normal -0.866025 0.5 0
    outer loop
      vertex -30.9891 32.3253 45.4021
      vertex -33.4891 27.9952 45.8333
      vertex -30.9891 32.3253 45.8333
    endloop
  endfacet
  facet normal 0 0 1
    outer loop
      vertex -30.9891 32.3253 45.8333
      vertex -33.4891 27.9952 45.8333
      vertex -31.757 26.9952 45.8333
    endloop
  endfacet
  facet normal 0 0 1
    outer loop
      vertex -29.257 31.3253 45.8333
      vertex -30.9891 32.3253 45.8333
      vertex -31.757 26.9952 45.8333
    endloop
  endfacet
  facet normal -0.612372 0.353553 -0.707107
    outer loop
      vertex -27.525 30.3253 41.788
      vertex -30.025 25.9952 41.788
      vertex -30.822 32.2288 45.595
    endloop
  endfacet
  facet normal -0.612372 0.353553 -0.707107
    outer loop
      vertex -30.822 32.2288 45.595
      vertex -30.025 25.9952 41.788
      vertex -33.322 27.8987 45.595
    endloop
  endfacet
  facet normal 0.612372 -0.353553 -0.707107
    outer loop
      vertex -30.822 32.2288 45.595
      vertex -33.322 27.8987 45.595
      vertex -30.9891 32.3253 45.4021
    endloop
  endfacet
  facet normal 0.612372 -0.353553 -0.707107
    outer loop
      vertex -30.9891 32.3253 45.4021
      vertex -33.322 27.8987 45.595
      vertex -33.4891 27.9952 45.4021
    endloop
  endfacet
  facet normal 3.14018e-16 0.707107 -0.707107
    outer loop
      vertex -7.5 -42.8071 45.595
      vertex -7.5 -43 45.4021
      vertex -12.5 -42.8071 45.595
    endloop
  endfacet
  facet normal 3.14018e-16 0.707107 -0.707107
    outer loop
      vertex -12.5 -42.8071 45.595
      vertex -7.5 -43 45.4021
      vertex -12.5 -43 45.4021
    endloop
  endfacet
  facet normal -3.14018e-16 -0.707107 -0.707107
    outer loop
      vertex -7.5 -39 41.788
      vertex -7.5 -42.8071 45.595
      vertex -12.5 -39 41.788
    endloop
  endfacet
  facet normal -3.14018e-16 -0.707107 -0.707107
    outer loop
      vertex -12.5 -39 41.788
      vertex -7.5 -42.8071 45.595
      vertex -12.5 -42.8071 45.595
    endloop
  endfacet
  facet normal 0 0 1
    outer loop
      vertex -12.5 -41 45.8333
      vertex -12.5 -43 45.8333
      vertex -7.5 -43 45.8333
    endloop
  endfacet
  facet normal 0 0 1
    outer loop
      vertex -7.5 -41 45.8333
      vertex -12.5 -41 45.8333
      vertex -7.5 -43 45.8333
    endloop
  endfacet
  facet normal -4.44089e-16 -1 0
    outer loop
      vertex -12.5 -43 45.8333
      vertex -12.5 -43 45.4021
      vertex -7.5 -43 45.4021
    endloop
  endfacet
  facet normal -4.44089e-16 -1 0
    outer loop
      vertex -7.5 -43 45.8333
      vertex -12.5 -43 45.8333
      vertex -7.5 -43 45.4021
    endloop
  endfacet
  facet normal 3.14018e-16 0.707107 -0.707107
    outer loop
      vertex 12.5 42.8071 45.595
      vertex 12.5 39 41.788
      vertex 7.5 42.8071 45.595
    endloop
  endfacet
  facet normal 3.14018e-16 0.707107 -0.707107
    outer loop
      vertex 7.5 42.8071 45.595
      vertex 12.5 39 41.788
      vertex 7.5 39 41.788
    endloop
  endfacet
  facet normal -3.14018e-16 -0.707107 -0.707107
    outer loop
      vertex 7.5 43 45.4021
      vertex 12.5 43 45.4021
      vertex 12.5 42.8071 45.595
    endloop
  endfacet
  facet normal -3.14018e-16 -0.707107 -0.707107
    outer loop
      vertex 7.5 42.8071 45.595
      vertex 7.5 43 45.4021
      vertex 12.5 42.8071 45.595
    endloop
  endfacet
  facet normal 4.44089e-16 1 0
    outer loop
      vertex 7.5 43 45.4021
      vertex 7.5 43 45.8333
      vertex 12.5 43 45.4021
    endloop
  endfacet
  facet normal 4.44089e-16 1 0
    outer loop
      vertex 12.5 43 45.4021
      vertex 7.5 43 45.8333
      vertex 12.5 43 45.8333
    endloop
  endfacet
  facet normal 0 0 1
    outer loop
      vertex 7.5 43 45.8333
      vertex 7.5 41 45.8333
      vertex 12.5 41 45.8333
    endloop
  endfacet
  facet normal 0 0 1
    outer loop
      vertex 12.5 43 45.8333
      vertex 7.5 43 45.8333
      vertex 12.5 41 45.8333
    endloop
  endfacet
  facet normal 0 0 1
    outer loop
      vertex 31.757 -26.9952 45.8333
      vertex 29.257 -31.3253 45.8333
      vertex 30.9891 -32.3253 45.8333
    endloop
  endfacet
  facet normal 0 0 1
    outer loop
      vertex 33.4891 -27.9952 45.8333
      vertex 31.757 -26.9952 45.8333
      vertex 30.9891 -32.3253 45.8333
    endloop
  endfacet
  facet normal 0.866025 -0.5 0
    outer loop
      vertex 30.9891 -32.3253 45.8333
      vertex 30.9891 -32.3253 45.4021
      vertex 33.4891 -27.9952 45.4021
    endloop
  endfacet
  facet normal 0.866025 -0.5 0
    outer loop
      vertex 33.4891 -27.9952 45.8333
      vertex 30.9891 -32.3253 45.8333
      vertex 33.4891 -27.9952 45.4021
    endloop
  endfacet
  facet normal -0.612372 0.353553 -0.707107
    outer loop
      vertex 33.4891 -27.9952 45.4021
      vertex 30.9891 -32.3253 45.4021
      vertex 33.322 -27.8987 45.595
    endloop
  endfacet
  facet normal -0.612372 0.353553 -0.707107
    outer loop
      vertex 33.322 -27.8987 45.595
      vertex 30.9891 -32.3253 45.4021
      vertex 30.822 -32.2288 45.595
    endloop
  endfacet
  facet normal 0.612372 -0.353553 -0.707107
    outer loop
      vertex 33.322 -27.8987 45.595
      vertex 30.822 -32.2288 45.595
      vertex 30.025 -25.9952 41.788
    endloop
  endfacet
  facet normal 0.612372 -0.353553 -0.707107
    outer loop
      vertex 30.025 -25.9952 41.788
      vertex 30.822 -32.2288 45.595
      vertex 27.525 -30.3253 41.788
    endloop
  endfacet
  facet normal 0.612372 0.353553 -0.707107
    outer loop
      vertex 43.322 10.5782 45.595
      vertex 40.025 8.67468 41.788
      vertex 40.822 14.9083 45.595
    endloop
  endfacet
  facet normal 0.612372 0.353553 -0.707107
    outer loop
      vertex 40.822 14.9083 45.595
      vertex 40.025 8.67468 41.788
      vertex 37.525 13.0048 41.788
    endloop
  endfacet
  facet normal -0.612372 -0.353553 -0.707107
    outer loop
      vertex 43.4891 10.6747 45.4021
      vertex 43.322 10.5782 45.595
      vertex 40.9891 15.0048 45.4021
    endloop
  endfacet
  facet normal -0.612372 -0.353553 -0.707107
    outer loop
      vertex 40.9891 15.0048 45.4021
      vertex 43.322 10.5782 45.595
      vertex 40.822 14.9083 45.595
    endloop
  endfacet
  facet normal 0.866025 0.5 0
    outer loop
      vertex 43.4891 10.6747 45.4021
      vertex 40.9891 15.0048 45.4021
      vertex 40.9891 15.0048 45.8333
    endloop
  endfacet
  facet normal 0.866025 0.5 0
    outer loop
      vertex 43.4891 10.6747 45.8333
      vertex 43.4891 10.6747 45.4021
      vertex 40.9891 15.0048 45.8333
    endloop
  endfacet
  facet normal 0 0 1
    outer loop
      vertex 40.9891 15.0048 45.8333
      vertex 39.257 14.0048 45.8333
      vertex 41.757 9.67468 45.8333
    endloop
  endfacet
  facet normal 0 0 1
    outer loop
      vertex 43.4891 10.6747 45.8333
      vertex 40.9891 15.0048 45.8333
      vertex 41.757 9.67468 45.8333
    endloop
  endfacet
endsolid OpenSCAD_Model
