solid OpenSCAD_Model
  facet normal 0 0 -1
    outer loop
      vertex -20.8349 -41.0872 49.5
      vertex -25 -43.3013 49.5
      vertex -25.1651 -38.5872 49.5
    endloop
  endfacet
  facet normal 0 0 -1
    outer loop
      vertex -20.8349 41.0872 49.5
      vertex -25 43.3013 49.5
      vertex 25 43.3013 49.5
    endloop
  endfacet
  facet normal 0 0 -1
    outer loop
      vertex 25.1651 38.5872 49.5
      vertex 25 43.3013 49.5
      vertex 50 0 49.5
    endloop
  endfacet
  facet normal 0 0 -1
    outer loop
      vertex 25.1651 -38.5872 49.5
      vertex 50 0 49.5
      vertex 25 -43.3013 49.5
    endloop
  endfacet
  facet normal 0 0 -1
    outer loop
      vertex -50 0 49.5
      vertex -25 43.3013 49.5
      vertex -46 2.5 49.5
    endloop
  endfacet
  facet normal 0 0 -1
    outer loop
      vertex -24.1651 36.8551 49.5
      vertex -24.1651 -36.8551 49.5
      vertex -25.1651 -38.5872 49.5
    endloop
  endfacet
  facet normal 0 0 -1
    outer loop
      vertex -50 0 49.5
      vertex -46 2.5 49.5
      vertex -46 -2.5 49.5
    endloop
  endfacet
  facet normal 0 0 -1
    outer loop
      vertex -50 0 49.5
      vertex -46 -2.5 49.5
      vertex -25 -43.3013 49.5
    endloop
  endfacet
  facet normal 0 0 -1
    outer loop
      vertex -46 -2.5 49.5
      vertex -44 -2.5 49.5
      vertex -25 -43.3013 49.5
    endloop
  endfacet
  facet normal 0 0 -1
    outer loop
      vertex -46 2.5 49.5
      vertex -25 43.3013 49.5
      vertex -44 2.5 49.5
    endloop
  endfacet
  facet normal 0 0 -1
    outer loop
      vertex 25.1651 -38.5872 49.5
      vertex 25 -43.3013 49.5
      vertex 20.8349 -41.0872 49.5
    endloop
  endfacet
  facet normal 0 0 -1
    outer loop
      vertex 20.8349 41.0872 49.5
      vertex 25 43.3013 49.5
      vertex 25.1651 38.5872 49.5
    endloop
  endfacet
  facet normal 0 0 -1
    outer loop
      vertex -44 2.5 49.5
      vertex -25.1651 -38.5872 49.5
      vertex -25 -43.3013 49.5
    endloop
  endfacet
  facet normal 0 0 -1
    outer loop
      vertex -25.1651 38.5872 49.5
      vertex -25 43.3013 49.5
      vertex -20.8349 41.0872 49.5
    endloop
  endfacet
  facet normal 0 0 -1
    outer loop
      vertex -25 -43.3013 49.5
      vertex -20.8349 -41.0872 49.5
      vertex 25 -43.3013 49.5
    endloop
  endfacet
  facet normal 0 0 -1
    outer loop
      vertex -24.1651 36.8551 49.5
      vertex -25.1651 -38.5872 49.5
      vertex -25.1651 38.5872 49.5
    endloop
  endfacet
  facet normal 0 0 -1
    outer loop
      vertex -44 2.5 49.5
      vertex -25 43.3013 49.5
      vertex -25.1651 38.5872 49.5
    endloop
  endfacet
  facet normal 0 0 -1
    outer loop
      vertex -44 2.5 49.5
      vertex -25.1651 38.5872 49.5
      vertex -25.1651 -38.5872 49.5
    endloop
  endfacet
  facet normal 0 0 -1
    outer loop
      vertex 20.8349 41.0872 49.5
      vertex -24.1651 36.8551 49.5
      vertex 25 43.3013 49.5
    endloop
  endfacet
  facet normal 0 0 -1
    outer loop
      vertex -24.1651 36.8551 49.5
      vertex -19.8349 39.3551 49.5
      vertex 25 43.3013 49.5
    endloop
  endfacet
  facet normal 0 0 -1
    outer loop
      vertex -19.8349 39.3551 49.5
      vertex -20.8349 41.0872 49.5
      vertex 25 43.3013 49.5
    endloop
  endfacet
  facet normal 0 0 -1
    outer loop
      vertex -24.1651 -36.8551 49.5
      vertex -24.1651 36.8551 49.5
      vertex 20.8349 41.0872 49.5
    endloop
  endfacet
  facet normal 0 0 -1
    outer loop
      vertex 24.1651 36.8551 49.5
      vertex -19.8349 -39.3551 49.5
      vertex -24.1651 -36.8551 49.5
    endloop
  endfacet
  facet normal 0 0 -1
    outer loop
      vertex -24.1651 -36.8551 49.5
      vertex 20.8349 41.0872 49.5
      vertex 19.8349 39.3551 49.5
    endloop
  endfacet
  facet normal 0 0 -1
    outer loop
      vertex 24.1651 36.8551 49.5
      vertex -24.1651 -36.8551 49.5
      vertex 19.8349 39.3551 49.5
    endloop
  endfacet
  facet normal 0 0 -1
    outer loop
      vertex 46 2.5 49.5
      vertex 24.1651 36.8551 49.5
      vertex 50 0 49.5
    endloop
  endfacet
  facet normal 0 0 -1
    outer loop
      vertex 24.1651 36.8551 49.5
      vertex 25.1651 38.5872 49.5
      vertex 50 0 49.5
    endloop
  endfacet
  facet normal 0 0 -1
    outer loop
      vertex 46 -2.5 49.5
      vertex 50 0 49.5
      vertex 19.8349 -39.3551 49.5
    endloop
  endfacet
  facet normal 0 0 -1
    outer loop
      vertex 46 -2.5 49.5
      vertex -19.8349 -39.3551 49.5
      vertex 44 -2.5 49.5
    endloop
  endfacet
  facet normal 0 0 -1
    outer loop
      vertex -20.8349 -41.0872 49.5
      vertex 19.8349 -39.3551 49.5
      vertex 20.8349 -41.0872 49.5
    endloop
  endfacet
  facet normal 0 0 -1
    outer loop
      vertex -20.8349 -41.0872 49.5
      vertex 20.8349 -41.0872 49.5
      vertex 25 -43.3013 49.5
    endloop
  endfacet
  facet normal 0 0 -1
    outer loop
      vertex 24.1651 -36.8551 49.5
      vertex 50 0 49.5
      vertex 25.1651 -38.5872 49.5
    endloop
  endfacet
  facet normal 0 0 -1
    outer loop
      vertex 46 -2.5 49.5
      vertex -20.8349 -41.0872 49.5
      vertex -19.8349 -39.3551 49.5
    endloop
  endfacet
  facet normal 0 0 -1
    outer loop
      vertex 19.8349 -39.3551 49.5
      vertex 50 0 49.5
      vertex 24.1651 -36.8551 49.5
    endloop
  endfacet
  facet normal 0 0 -1
    outer loop
      vertex -19.8349 -39.3551 49.5
      vertex 24.1651 36.8551 49.5
      vertex 44 2.5 49.5
    endloop
  endfacet
  facet normal 0 0 -1
    outer loop
      vertex -19.8349 -39.3551 49.5
      vertex 44 2.5 49.5
      vertex 44 -2.5 49.5
    endloop
  endfacet
  facet normal 0 0 -1
    outer loop
      vertex 46 2.5 49.5
      vertex 50 0 49.5
      vertex 46 -2.5 49.5
    endloop
  endfacet
  facet normal 0 0 -1
    outer loop
      vertex -20.8349 -41.0872 49.5
      vertex 46 -2.5 49.5
      vertex 19.8349 -39.3551 49.5
    endloop
  endfacet
  facet normal 0 0 -1
    outer loop
      vertex 44 2.5 49.5
      vertex 24.1651 36.8551 49.5
      vertex 46 2.5 49.5
    endloop
  endfacet
  facet normal 0 0 -1
    outer loop
      vertex -44 2.5 49.5
      vertex -25 -43.3013 49.5
      vertex -44 -2.5 49.5
    endloop
  endfacet
  facet normal -0.866025 0.5 0
    outer loop
      vertex -50 0 49.5
      vertex -50 0 50.5
      vertex -25 43.3013 49.5
    endloop
  endfacet
  facet normal -0.866025 0.5 0
    outer loop
      vertex -25 43.3013 49.5
      vertex -50 0 50.5
      vertex -25 43.3013 50.5
    endloop
  endfacet
  facet normal -0.866025 -0.5 0
    outer loop
      vertex -50 0 49.5
      vertex -25 -43.3013 49.5
      vertex -50 0 50.5
    endloop
  endfacet
  facet normal -0.866025 -0.5 0
    outer loop
      vertex -50 0 50.5
      vertex -25 -43.3013 49.5
      vertex -25 -43.3013 50.5
    endloop
  endfacet
  facet normal 0 -1 0
    outer loop
      vertex -25 -43.3013 50.5
      vertex -25 -43.3013 49.5
      vertex 25 -43.3013 49.5
    endloop
  endfacet
  facet normal 0 -1 0
    outer loop
      vertex 25 -43.3013 50.5
      vertex -25 -43.3013 50.5
      vertex 25 -43.3013 49.5
    endloop
  endfacet
  facet normal 0.866025 -0.5 0
    outer loop
      vertex 25 -43.3013 50.5
      vertex 25 -43.3013 49.5
      vertex 50 0 49.5
    endloop
  endfacet
  facet normal 0.866025 -0.5 0
    outer loop
      vertex 50 0 50.5
      vertex 25 -43.3013 50.5
      vertex 50 0 49.5
    endloop
  endfacet
  facet normal 0.866025 0.5 0
    outer loop
      vertex 50 0 49.5
      vertex 25 43.3013 49.5
      vertex 25 43.3013 50.5
    endloop
  endfacet
  facet normal 0.866025 0.5 0
    outer loop
      vertex 50 0 50.5
      vertex 50 0 49.5
      vertex 25 43.3013 50.5
    endloop
  endfacet
  facet normal 0 1 0
    outer loop
      vertex -25 43.3013 49.5
      vertex -25 43.3013 50.5
      vertex 25 43.3013 49.5
    endloop
  endfacet
  facet normal 0 1 0
    outer loop
      vertex 25 43.3013 49.5
      vertex -25 43.3013 50.5
      vertex 25 43.3013 50.5
    endloop
  endfacet
  facet normal 3.44509e-16 1 0
    outer loop
      vertex -48 2.5 41.6213
      vertex -48 2.5 43.75
      vertex -44 2.5 37.6213
    endloop
  endfacet
  facet normal 3.44509e-16 1 0
    outer loop
      vertex -44 2.5 37.6213
      vertex -48 2.5 43.75
      vertex -46 2.5 43.75
    endloop
  endfacet
  facet normal 3.44509e-16 1 0
    outer loop
      vertex -44 2.5 37.6213
      vertex -46 2.5 43.75
      vertex -46 2.5 49.5
    endloop
  endfacet
  facet normal 3.44509e-16 1 0
    outer loop
      vertex -44 2.5 37.6213
      vertex -46 2.5 49.5
      vertex -44 2.5 49.5
    endloop
  endfacet
  facet normal -1 3.44509e-16 0
    outer loop
      vertex -46 -2.5 43.75
      vertex -46 -2.5 49.5
      vertex -46 2.5 43.75
    endloop
  endfacet
  facet normal -1 3.44509e-16 0
    outer loop
      vertex -46 2.5 43.75
      vertex -46 -2.5 49.5
      vertex -46 2.5 49.5
    endloop
  endfacet
  facet normal 1 -3.44509e-16 0
    outer loop
      vertex -44 -2.5 49.5
      vertex -44 -2.5 37.6213
      vertex -44 2.5 37.6213
    endloop
  endfacet
  facet normal 1 -3.44509e-16 0
    outer loop
      vertex -44 2.5 49.5
      vertex -44 -2.5 49.5
      vertex -44 2.5 37.6213
    endloop
  endfacet
  facet normal -3.44509e-16 -1 0
    outer loop
      vertex -48 -2.5 43.75
      vertex -48 -2.5 41.6213
      vertex -44 -2.5 37.6213
    endloop
  endfacet
  facet normal -3.44509e-16 -1 0
    outer loop
      vertex -46 -2.5 43.75
      vertex -48 -2.5 43.75
      vertex -44 -2.5 37.6213
    endloop
  endfacet
  facet normal -3.44509e-16 -1 0
    outer loop
      vertex -44 -2.5 49.5
      vertex -46 -2.5 43.75
      vertex -44 -2.5 37.6213
    endloop
  endfacet
  facet normal -3.44509e-16 -1 0
    outer loop
      vertex -46 -2.5 49.5
      vertex -46 -2.5 43.75
      vertex -44 -2.5 49.5
    endloop
  endfacet
  facet normal -0.866025 0.5 0
    outer loop
      vertex -26.1651 -40.3192 41.6213
      vertex -26.1651 -40.3192 43.75
      vertex -24.1651 -36.8551 37.6213
    endloop
  endfacet
  facet normal -0.866025 0.5 0
    outer loop
      vertex -24.1651 -36.8551 37.6213
      vertex -26.1651 -40.3192 43.75
      vertex -25.1651 -38.5872 43.75
    endloop
  endfacet
  facet normal -0.866025 0.5 0
    outer loop
      vertex -24.1651 -36.8551 37.6213
      vertex -25.1651 -38.5872 43.75
      vertex -25.1651 -38.5872 49.5
    endloop
  endfacet
  facet normal -0.866025 0.5 0
    outer loop
      vertex -24.1651 -36.8551 37.6213
      vertex -25.1651 -38.5872 49.5
      vertex -24.1651 -36.8551 49.5
    endloop
  endfacet
  facet normal 0.5 0.866025 0
    outer loop
      vertex -24.1651 -36.8551 37.6213
      vertex -24.1651 -36.8551 49.5
      vertex -19.8349 -39.3551 37.6213
    endloop
  endfacet
  facet normal 0.5 0.866025 0
    outer loop
      vertex -19.8349 -39.3551 37.6213
      vertex -24.1651 -36.8551 49.5
      vertex -19.8349 -39.3551 49.5
    endloop
  endfacet
  facet normal 0.866025 -0.5 0
    outer loop
      vertex -21.8349 -42.8192 43.75
      vertex -21.8349 -42.8192 41.6213
      vertex -19.8349 -39.3551 37.6213
    endloop
  endfacet
  facet normal 0.866025 -0.5 0
    outer loop
      vertex -20.8349 -41.0872 43.75
      vertex -21.8349 -42.8192 43.75
      vertex -19.8349 -39.3551 37.6213
    endloop
  endfacet
  facet normal 0.866025 -0.5 0
    outer loop
      vertex -19.8349 -39.3551 49.5
      vertex -20.8349 -41.0872 43.75
      vertex -19.8349 -39.3551 37.6213
    endloop
  endfacet
  facet normal 0.866025 -0.5 0
    outer loop
      vertex -20.8349 -41.0872 49.5
      vertex -20.8349 -41.0872 43.75
      vertex -19.8349 -39.3551 49.5
    endloop
  endfacet
  facet normal -0.5 -0.866025 0
    outer loop
      vertex -25.1651 -38.5872 49.5
      vertex -25.1651 -38.5872 43.75
      vertex -20.8349 -41.0872 43.75
    endloop
  endfacet
  facet normal -0.5 -0.866025 0
    outer loop
      vertex -20.8349 -41.0872 49.5
      vertex -25.1651 -38.5872 49.5
      vertex -20.8349 -41.0872 43.75
    endloop
  endfacet
  facet normal -0.866025 -0.5 0
    outer loop
      vertex -26.1651 40.3192 41.6213
      vertex -24.1651 36.8551 37.6213
      vertex -26.1651 40.3192 43.75
    endloop
  endfacet
  facet normal -0.866025 -0.5 0
    outer loop
      vertex -25.1651 38.5872 43.75
      vertex -24.1651 36.8551 37.6213
      vertex -24.1651 36.8551 49.5
    endloop
  endfacet
  facet normal -0.866025 -0.5 0
    outer loop
      vertex -26.1651 40.3192 43.75
      vertex -24.1651 36.8551 37.6213
      vertex -25.1651 38.5872 43.75
    endloop
  endfacet
  facet normal -0.866025 -0.5 0
    outer loop
      vertex -25.1651 38.5872 43.75
      vertex -24.1651 36.8551 49.5
      vertex -25.1651 38.5872 49.5
    endloop
  endfacet
  facet normal -0.5 0.866025 0
    outer loop
      vertex -25.1651 38.5872 43.75
      vertex -25.1651 38.5872 49.5
      vertex -20.8349 41.0872 43.75
    endloop
  endfacet
  facet normal -0.5 0.866025 0
    outer loop
      vertex -20.8349 41.0872 43.75
      vertex -25.1651 38.5872 49.5
      vertex -20.8349 41.0872 49.5
    endloop
  endfacet
  facet normal 0.866025 0.5 0
    outer loop
      vertex -19.8349 39.3551 37.6213
      vertex -21.8349 42.8192 41.6213
      vertex -21.8349 42.8192 43.75
    endloop
  endfacet
  facet normal 0.866025 0.5 0
    outer loop
      vertex -20.8349 41.0872 49.5
      vertex -19.8349 39.3551 37.6213
      vertex -20.8349 41.0872 43.75
    endloop
  endfacet
  facet normal 0.866025 0.5 0
    outer loop
      vertex -20.8349 41.0872 43.75
      vertex -19.8349 39.3551 37.6213
      vertex -21.8349 42.8192 43.75
    endloop
  endfacet
  facet normal 0.866025 0.5 0
    outer loop
      vertex -19.8349 39.3551 49.5
      vertex -19.8349 39.3551 37.6213
      vertex -20.8349 41.0872 49.5
    endloop
  endfacet
  facet normal 0.5 -0.866025 0
    outer loop
      vertex -24.1651 36.8551 49.5
      vertex -24.1651 36.8551 37.6213
      vertex -19.8349 39.3551 37.6213
    endloop
  endfacet
  facet normal 0.5 -0.866025 0
    outer loop
      vertex -19.8349 39.3551 49.5
      vertex -24.1651 36.8551 49.5
      vertex -19.8349 39.3551 37.6213
    endloop
  endfacet
  facet normal -0.866025 0.5 0
    outer loop
      vertex 21.8349 42.8192 43.75
      vertex 21.8349 42.8192 41.6213
      vertex 20.8349 41.0872 43.75
    endloop
  endfacet
  facet normal -0.866025 0.5 0
    outer loop
      vertex 19.8349 39.3551 37.6213
      vertex 19.8349 39.3551 49.5
      vertex 20.8349 41.0872 43.75
    endloop
  endfacet
  facet normal -0.866025 0.5 0
    outer loop
      vertex 19.8349 39.3551 37.6213
      vertex 20.8349 41.0872 43.75
      vertex 21.8349 42.8192 41.6213
    endloop
  endfacet
  facet normal -0.866025 0.5 0
    outer loop
      vertex 20.8349 41.0872 43.75
      vertex 19.8349 39.3551 49.5
      vertex 20.8349 41.0872 49.5
    endloop
  endfacet
  facet normal 0.5 0.866025 0
    outer loop
      vertex 20.8349 41.0872 43.75
      vertex 20.8349 41.0872 49.5
      vertex 25.1651 38.5872 43.75
    endloop
  endfacet
  facet normal 0.5 0.866025 0
    outer loop
      vertex 25.1651 38.5872 43.75
      vertex 20.8349 41.0872 49.5
      vertex 25.1651 38.5872 49.5
    endloop
  endfacet
  facet normal 0.866025 -0.5 0
    outer loop
      vertex 25.1651 38.5872 43.75
      vertex 24.1651 36.8551 37.6213
      vertex 26.1651 40.3192 41.6213
    endloop
  endfacet
  facet normal 0.866025 -0.5 0
    outer loop
      vertex 25.1651 38.5872 43.75
      vertex 25.1651 38.5872 49.5
      vertex 24.1651 36.8551 49.5
    endloop
  endfacet
  facet normal 0.866025 -0.5 0
    outer loop
      vertex 24.1651 36.8551 49.5
      vertex 24.1651 36.8551 37.6213
      vertex 25.1651 38.5872 43.75
    endloop
  endfacet
  facet normal 0.866025 -0.5 0
    outer loop
      vertex 26.1651 40.3192 43.75
      vertex 25.1651 38.5872 43.75
      vertex 26.1651 40.3192 41.6213
    endloop
  endfacet
  facet normal -0.5 -0.866025 0
    outer loop
      vertex 19.8349 39.3551 49.5
      vertex 19.8349 39.3551 37.6213
      vertex 24.1651 36.8551 37.6213
    endloop
  endfacet
  facet normal -0.5 -0.866025 0
    outer loop
      vertex 24.1651 36.8551 49.5
      vertex 19.8349 39.3551 49.5
      vertex 24.1651 36.8551 37.6213
    endloop
  endfacet
  facet normal -0.866025 -0.5 0
    outer loop
      vertex 20.8349 -41.0872 49.5
      vertex 19.8349 -39.3551 49.5
      vertex 20.8349 -41.0872 43.75
    endloop
  endfacet
  facet normal -0.866025 -0.5 0
    outer loop
      vertex 19.8349 -39.3551 37.6213
      vertex 21.8349 -42.8192 41.6213
      vertex 20.8349 -41.0872 43.75
    endloop
  endfacet
  facet normal -0.866025 -0.5 0
    outer loop
      vertex 19.8349 -39.3551 37.6213
      vertex 20.8349 -41.0872 43.75
      vertex 19.8349 -39.3551 49.5
    endloop
  endfacet
  facet normal -0.866025 -0.5 0
    outer loop
      vertex 20.8349 -41.0872 43.75
      vertex 21.8349 -42.8192 41.6213
      vertex 21.8349 -42.8192 43.75
    endloop
  endfacet
  facet normal -0.5 0.866025 0
    outer loop
      vertex 19.8349 -39.3551 37.6213
      vertex 19.8349 -39.3551 49.5
      vertex 24.1651 -36.8551 37.6213
    endloop
  endfacet
  facet normal -0.5 0.866025 0
    outer loop
      vertex 24.1651 -36.8551 37.6213
      vertex 19.8349 -39.3551 49.5
      vertex 24.1651 -36.8551 49.5
    endloop
  endfacet
  facet normal 0.866025 0.5 0
    outer loop
      vertex 25.1651 -38.5872 43.75
      vertex 24.1651 -36.8551 37.6213
      vertex 24.1651 -36.8551 49.5
    endloop
  endfacet
  facet normal 0.866025 0.5 0
    outer loop
      vertex 25.1651 -38.5872 43.75
      vertex 26.1651 -40.3192 43.75
      vertex 26.1651 -40.3192 41.6213
    endloop
  endfacet
  facet normal 0.866025 0.5 0
    outer loop
      vertex 26.1651 -40.3192 41.6213
      vertex 24.1651 -36.8551 37.6213
      vertex 25.1651 -38.5872 43.75
    endloop
  endfacet
  facet normal 0.866025 0.5 0
    outer loop
      vertex 25.1651 -38.5872 49.5
      vertex 25.1651 -38.5872 43.75
      vertex 24.1651 -36.8551 49.5
    endloop
  endfacet
  facet normal 0.5 -0.866025 0
    outer loop
      vertex 20.8349 -41.0872 49.5
      vertex 20.8349 -41.0872 43.75
      vertex 25.1651 -38.5872 43.75
    endloop
  endfacet
  facet normal 0.5 -0.866025 0
    outer loop
      vertex 25.1651 -38.5872 49.5
      vertex 20.8349 -41.0872 49.5
      vertex 25.1651 -38.5872 43.75
    endloop
  endfacet
  facet normal -1 2.22045e-16 0
    outer loop
      vertex 44 -2.5 37.6213
      vertex 44 -2.5 49.5
      vertex 44 2.5 37.6213
    endloop
  endfacet
  facet normal -1 2.22045e-16 0
    outer loop
      vertex 44 2.5 37.6213
      vertex 44 -2.5 49.5
      vertex 44 2.5 49.5
    endloop
  endfacet
  facet normal 2.22045e-16 1 0
    outer loop
      vertex 48 2.5 43.75
      vertex 48 2.5 41.6213
      vertex 46 2.5 43.75
    endloop
  endfacet
  facet normal 2.22045e-16 1 0
    outer loop
      vertex 44 2.5 37.6213
      vertex 44 2.5 49.5
      vertex 46 2.5 43.75
    endloop
  endfacet
  facet normal 2.22045e-16 1 0
    outer loop
      vertex 44 2.5 37.6213
      vertex 46 2.5 43.75
      vertex 48 2.5 41.6213
    endloop
  endfacet
  facet normal 2.22045e-16 1 0
    outer loop
      vertex 46 2.5 43.75
      vertex 44 2.5 49.5
      vertex 46 2.5 49.5
    endloop
  endfacet
  facet normal 1 -2.22045e-16 0
    outer loop
      vertex 46 -2.5 49.5
      vertex 46 -2.5 43.75
      vertex 46 2.5 43.75
    endloop
  endfacet
  facet normal 1 -2.22045e-16 0
    outer loop
      vertex 46 2.5 49.5
      vertex 46 -2.5 49.5
      vertex 46 2.5 43.75
    endloop
  endfacet
  facet normal -2.22045e-16 -1 0
    outer loop
      vertex 46 -2.5 43.75
      vertex 44 -2.5 37.6213
      vertex 48 -2.5 41.6213
    endloop
  endfacet
  facet normal -2.22045e-16 -1 0
    outer loop
      vertex 46 -2.5 43.75
      vertex 46 -2.5 49.5
      vertex 44 -2.5 49.5
    endloop
  endfacet
  facet normal -2.22045e-16 -1 0
    outer loop
      vertex 44 -2.5 49.5
      vertex 44 -2.5 37.6213
      vertex 46 -2.5 43.75
    endloop
  endfacet
  facet normal -2.22045e-16 -1 0
    outer loop
      vertex 48 -2.5 43.75
      vertex 46 -2.5 43.75
      vertex 48 -2.5 41.6213
    endloop
  endfacet
  facet normal 0 0 1
    outer loop
      vertex -25 43.3013 50.5
      vertex -50 0 50.5
      vertex -25 -43.3013 50.5
    endloop
  endfacet
  facet normal 0 0 1
    outer loop
      vertex 50 0 50.5
      vertex -25 43.3013 50.5
      vertex 25 -43.3013 50.5
    endloop
  endfacet
  facet normal 0 0 1
    outer loop
      vertex 25 -43.3013 50.5
      vertex -25 43.3013 50.5
      vertex -25 -43.3013 50.5
    endloop
  endfacet
  facet normal 0 0 1
    outer loop
      vertex 25 43.3013 50.5
      vertex -25 43.3013 50.5
      vertex 50 0 50.5
    endloop
  endfacet
  facet normal -0.707107 2.43605e-16 -0.707107
    outer loop
      vertex -44 2.5 37.6213
      vertex -44 -2.5 37.6213
      vertex -48 2.5 41.6213
    endloop
  endfacet
  facet normal -0.707107 2.43605e-16 -0.707107
    outer loop
      vertex -48 2.5 41.6213
      vertex -44 -2.5 37.6213
      vertex -48 -2.5 41.6213
    endloop
  endfacet
  facet normal 0 0 1
    outer loop
      vertex -48 2.5 43.75
      vertex -48 -2.5 43.75
      vertex -46 -2.5 43.75
    endloop
  endfacet
  facet normal 0 0 1
    outer loop
      vertex -46 2.5 43.75
      vertex -48 2.5 43.75
      vertex -46 -2.5 43.75
    endloop
  endfacet
  facet normal -1 3.44509e-16 0
    outer loop
      vertex -48 -2.5 41.6213
      vertex -48 -2.5 43.75
      vertex -48 2.5 41.6213
    endloop
  endfacet
  facet normal -1 3.44509e-16 0
    outer loop
      vertex -48 2.5 41.6213
      vertex -48 -2.5 43.75
      vertex -48 2.5 43.75
    endloop
  endfacet
  facet normal -0.353553 -0.612372 -0.707107
    outer loop
      vertex -19.8349 -39.3551 37.6213
      vertex -21.8349 -42.8192 41.6213
      vertex -24.1651 -36.8551 37.6213
    endloop
  endfacet
  facet normal -0.353553 -0.612372 -0.707107
    outer loop
      vertex -24.1651 -36.8551 37.6213
      vertex -21.8349 -42.8192 41.6213
      vertex -26.1651 -40.3192 41.6213
    endloop
  endfacet
  facet normal 0 0 1
    outer loop
      vertex -25.1651 -38.5872 43.75
      vertex -26.1651 -40.3192 43.75
      vertex -21.8349 -42.8192 43.75
    endloop
  endfacet
  facet normal 0 0 1
    outer loop
      vertex -20.8349 -41.0872 43.75
      vertex -25.1651 -38.5872 43.75
      vertex -21.8349 -42.8192 43.75
    endloop
  endfacet
  facet normal -0.5 -0.866025 0
    outer loop
      vertex -26.1651 -40.3192 43.75
      vertex -26.1651 -40.3192 41.6213
      vertex -21.8349 -42.8192 41.6213
    endloop
  endfacet
  facet normal -0.5 -0.866025 0
    outer loop
      vertex -21.8349 -42.8192 43.75
      vertex -26.1651 -40.3192 43.75
      vertex -21.8349 -42.8192 41.6213
    endloop
  endfacet
  facet normal -0.5 0.866025 0
    outer loop
      vertex -26.1651 40.3192 41.6213
      vertex -26.1651 40.3192 43.75
      vertex -21.8349 42.8192 41.6213
    endloop
  endfacet
  facet normal -0.5 0.866025 0
    outer loop
      vertex -21.8349 42.8192 41.6213
      vertex -26.1651 40.3192 43.75
      vertex -21.8349 42.8192 43.75
    endloop
  endfacet
  facet normal 0 0 1
    outer loop
      vertex -21.8349 42.8192 43.75
      vertex -26.1651 40.3192 43.75
      vertex -25.1651 38.5872 43.75
    endloop
  endfacet
  facet normal 0 0 1
    outer loop
      vertex -20.8349 41.0872 43.75
      vertex -21.8349 42.8192 43.75
      vertex -25.1651 38.5872 43.75
    endloop
  endfacet
  facet normal -0.353553 0.612372 -0.707107
    outer loop
      vertex -19.8349 39.3551 37.6213
      vertex -24.1651 36.8551 37.6213
      vertex -21.8349 42.8192 41.6213
    endloop
  endfacet
  facet normal -0.353553 0.612372 -0.707107
    outer loop
      vertex -21.8349 42.8192 41.6213
      vertex -24.1651 36.8551 37.6213
      vertex -26.1651 40.3192 41.6213
    endloop
  endfacet
  facet normal 0.5 0.866025 0
    outer loop
      vertex 21.8349 42.8192 41.6213
      vertex 21.8349 42.8192 43.75
      vertex 26.1651 40.3192 41.6213
    endloop
  endfacet
  facet normal 0.5 0.866025 0
    outer loop
      vertex 26.1651 40.3192 41.6213
      vertex 21.8349 42.8192 43.75
      vertex 26.1651 40.3192 43.75
    endloop
  endfacet
  facet normal 0.353553 0.612372 -0.707107
    outer loop
      vertex 26.1651 40.3192 41.6213
      vertex 24.1651 36.8551 37.6213
      vertex 21.8349 42.8192 41.6213
    endloop
  endfacet
  facet normal 0.353553 0.612372 -0.707107
    outer loop
      vertex 21.8349 42.8192 41.6213
      vertex 24.1651 36.8551 37.6213
      vertex 19.8349 39.3551 37.6213
    endloop
  endfacet
  facet normal 0 0 1
    outer loop
      vertex 21.8349 42.8192 43.75
      vertex 20.8349 41.0872 43.75
      vertex 25.1651 38.5872 43.75
    endloop
  endfacet
  facet normal 0 0 1
    outer loop
      vertex 26.1651 40.3192 43.75
      vertex 21.8349 42.8192 43.75
      vertex 25.1651 38.5872 43.75
    endloop
  endfacet
  facet normal 0 0 1
    outer loop
      vertex 25.1651 -38.5872 43.75
      vertex 20.8349 -41.0872 43.75
      vertex 21.8349 -42.8192 43.75
    endloop
  endfacet
  facet normal 0 0 1
    outer loop
      vertex 26.1651 -40.3192 43.75
      vertex 25.1651 -38.5872 43.75
      vertex 21.8349 -42.8192 43.75
    endloop
  endfacet
  facet normal 0.5 -0.866025 0
    outer loop
      vertex 21.8349 -42.8192 43.75
      vertex 21.8349 -42.8192 41.6213
      vertex 26.1651 -40.3192 41.6213
    endloop
  endfacet
  facet normal 0.5 -0.866025 0
    outer loop
      vertex 26.1651 -40.3192 43.75
      vertex 21.8349 -42.8192 43.75
      vertex 26.1651 -40.3192 41.6213
    endloop
  endfacet
  facet normal 0.353553 -0.612372 -0.707107
    outer loop
      vertex 26.1651 -40.3192 41.6213
      vertex 21.8349 -42.8192 41.6213
      vertex 24.1651 -36.8551 37.6213
    endloop
  endfacet
  facet normal 0.353553 -0.612372 -0.707107
    outer loop
      vertex 24.1651 -36.8551 37.6213
      vertex 21.8349 -42.8192 41.6213
      vertex 19.8349 -39.3551 37.6213
    endloop
  endfacet
  facet normal 0.707107 -1.57009e-16 -0.707107
    outer loop
      vertex 48 2.5 41.6213
      vertex 48 -2.5 41.6213
      vertex 44 2.5 37.6213
    endloop
  endfacet
  facet normal 0.707107 -1.57009e-16 -0.707107
    outer loop
      vertex 44 2.5 37.6213
      vertex 48 -2.5 41.6213
      vertex 44 -2.5 37.6213
    endloop
  endfacet
  facet normal 1 -2.22045e-16 0
    outer loop
      vertex 48 -2.5 43.75
      vertex 48 -2.5 41.6213
      vertex 48 2.5 41.6213
    endloop
  endfacet
  facet normal 1 -2.22045e-16 0
    outer loop
      vertex 48 2.5 43.75
      vertex 48 -2.5 43.75
      vertex 48 2.5 41.6213
    endloop
  endfacet
  facet normal 0 0 1
    outer loop
      vertex 46 2.5 43.75
      vertex 46 -2.5 43.75
      vertex 48 -2.5 43.75
    endloop
  endfacet
  facet normal 0 0 1
    outer loop
      vertex 48 2.5 43.75
      vertex 46 2.5 43.75
      vertex 48 -2.5 43.75
    endloop
  endfacet
endsolid OpenSCAD_Model
