solid OpenSCAD_Model
  facet normal 0 0 -1
    outer loop
      vertex -44.7 -2.5 49.5
      vertex -45.6699 -7.5 49.5
      vertex -46.7 -2.5 49.5
    endloop
  endfacet
  facet normal 0 0 -1
    outer loop
      vertex -44.7 2.5 49.5
      vertex -45.6699 7.5 49.5
      vertex -12.9904 7.5 49.5
    endloop
  endfacet
  facet normal 0 0 -1
    outer loop
      vertex -25.5151 39.1934 49.5
      vertex -29.3301 35.8013 49.5
      vertex -25 43.3013 49.5
    endloop
  endfacet
  facet normal 0 0 -1
    outer loop
      vertex -21.1849 41.6934 49.5
      vertex -25 43.3013 49.5
      vertex -16.3397 43.3013 49.5
    endloop
  endfacet
  facet normal 0 0 -1
    outer loop
      vertex -12.9904 7.5 49.5
      vertex -16.3397 43.3013 49.5
      vertex 4.33013 7.5 49.5
    endloop
  endfacet
  facet normal 0 0 -1
    outer loop
      vertex -12.9904 7.5 49.5
      vertex 4.33013 7.5 49.5
      vertex -45.6699 -7.5 49.5
    endloop
  endfacet
  facet normal 0 0 -1
    outer loop
      vertex 4.33013 7.5 49.5
      vertex 45.6699 7.5 49.5
      vertex -45.6699 -7.5 49.5
    endloop
  endfacet
  facet normal 0 0 -1
    outer loop
      vertex 46.7 2.5 49.5
      vertex 45.6699 7.5 49.5
      vertex 50 0 49.5
    endloop
  endfacet
  facet normal 0 0 -1
    outer loop
      vertex 46.7 -2.5 49.5
      vertex 50 0 49.5
      vertex 45.6699 -7.5 49.5
    endloop
  endfacet
  facet normal 0 0 -1
    outer loop
      vertex -46.7 2.5 49.5
      vertex -45.6699 7.5 49.5
      vertex -44.7 2.5 49.5
    endloop
  endfacet
  facet normal 0 0 -1
    outer loop
      vertex 25.5151 -39.1934 49.5
      vertex 29.3301 -35.8013 49.5
      vertex 25 -43.3013 49.5
    endloop
  endfacet
  facet normal 0 0 -1
    outer loop
      vertex 21.1849 -41.6934 49.5
      vertex 25 -43.3013 49.5
      vertex 16.3397 -43.3013 49.5
    endloop
  endfacet
  facet normal 0 0 -1
    outer loop
      vertex 12.9904 -7.5 49.5
      vertex 29.3301 -35.8013 49.5
      vertex -4.33013 -7.5 49.5
    endloop
  endfacet
  facet normal 0 0 -1
    outer loop
      vertex -50 0 49.5
      vertex -45.6699 7.5 49.5
      vertex -46.7 2.5 49.5
    endloop
  endfacet
  facet normal 0 0 -1
    outer loop
      vertex -50 0 49.5
      vertex -46.7 2.5 49.5
      vertex -46.7 -2.5 49.5
    endloop
  endfacet
  facet normal 0 0 -1
    outer loop
      vertex -50 0 49.5
      vertex -46.7 -2.5 49.5
      vertex -45.6699 -7.5 49.5
    endloop
  endfacet
  facet normal 0 0 -1
    outer loop
      vertex -45.6699 -7.5 49.5
      vertex -44.7 -2.5 49.5
      vertex -12.9904 7.5 49.5
    endloop
  endfacet
  facet normal 0 0 -1
    outer loop
      vertex -44.7 -2.5 49.5
      vertex -44.7 2.5 49.5
      vertex -12.9904 7.5 49.5
    endloop
  endfacet
  facet normal 0 0 -1
    outer loop
      vertex -12.9904 7.5 49.5
      vertex -29.3301 35.8013 49.5
      vertex -25.5151 39.1934 49.5
    endloop
  endfacet
  facet normal 0 0 -1
    outer loop
      vertex -20.1849 39.9613 49.5
      vertex -12.9904 7.5 49.5
      vertex -24.5151 37.4613 49.5
    endloop
  endfacet
  facet normal 0 0 -1
    outer loop
      vertex -12.9904 7.5 49.5
      vertex -25.5151 39.1934 49.5
      vertex -24.5151 37.4613 49.5
    endloop
  endfacet
  facet normal 0 0 -1
    outer loop
      vertex 44.7 -2.5 49.5
      vertex -45.6699 -7.5 49.5
      vertex 44.7 2.5 49.5
    endloop
  endfacet
  facet normal 0 0 -1
    outer loop
      vertex -12.9904 7.5 49.5
      vertex -20.1849 39.9613 49.5
      vertex -16.3397 43.3013 49.5
    endloop
  endfacet
  facet normal 0 0 -1
    outer loop
      vertex -20.1849 39.9613 49.5
      vertex -21.1849 41.6934 49.5
      vertex -16.3397 43.3013 49.5
    endloop
  endfacet
  facet normal 0 0 -1
    outer loop
      vertex 44.7 -2.5 49.5
      vertex 12.9904 -7.5 49.5
      vertex -4.33013 -7.5 49.5
    endloop
  endfacet
  facet normal 0 0 -1
    outer loop
      vertex 44.7 -2.5 49.5
      vertex -4.33013 -7.5 49.5
      vertex -45.6699 -7.5 49.5
    endloop
  endfacet
  facet normal 0 0 -1
    outer loop
      vertex 24.5151 -37.4613 49.5
      vertex 29.3301 -35.8013 49.5
      vertex 25.5151 -39.1934 49.5
    endloop
  endfacet
  facet normal 0 0 -1
    outer loop
      vertex -25.5151 39.1934 49.5
      vertex -25 43.3013 49.5
      vertex -21.1849 41.6934 49.5
    endloop
  endfacet
  facet normal 0 0 -1
    outer loop
      vertex 25.5151 -39.1934 49.5
      vertex 25 -43.3013 49.5
      vertex 21.1849 -41.6934 49.5
    endloop
  endfacet
  facet normal 0 0 -1
    outer loop
      vertex -45.6699 -7.5 49.5
      vertex 45.6699 7.5 49.5
      vertex 44.7 2.5 49.5
    endloop
  endfacet
  facet normal 0 0 -1
    outer loop
      vertex 46.7 2.5 49.5
      vertex 50 0 49.5
      vertex 46.7 -2.5 49.5
    endloop
  endfacet
  facet normal 0 0 -1
    outer loop
      vertex 12.9904 -7.5 49.5
      vertex 44.7 -2.5 49.5
      vertex 45.6699 -7.5 49.5
    endloop
  endfacet
  facet normal 0 0 -1
    outer loop
      vertex 44.7 -2.5 49.5
      vertex 46.7 -2.5 49.5
      vertex 45.6699 -7.5 49.5
    endloop
  endfacet
  facet normal 0 0 -1
    outer loop
      vertex 44.7 2.5 49.5
      vertex 45.6699 7.5 49.5
      vertex 46.7 2.5 49.5
    endloop
  endfacet
  facet normal 0 0 -1
    outer loop
      vertex -4.33013 -7.5 49.5
      vertex 29.3301 -35.8013 49.5
      vertex 24.5151 -37.4613 49.5
    endloop
  endfacet
  facet normal 0 0 -1
    outer loop
      vertex -4.33013 -7.5 49.5
      vertex 24.5151 -37.4613 49.5
      vertex 20.1849 -39.9613 49.5
    endloop
  endfacet
  facet normal 0 0 -1
    outer loop
      vertex -4.33013 -7.5 49.5
      vertex 20.1849 -39.9613 49.5
      vertex 21.1849 -41.6934 49.5
    endloop
  endfacet
  facet normal 0 0 -1
    outer loop
      vertex -4.33013 -7.5 49.5
      vertex 21.1849 -41.6934 49.5
      vertex 16.3397 -43.3013 49.5
    endloop
  endfacet
  facet normal -0.866025 0.5 0
    outer loop
      vertex -50 0 49.5
      vertex -50 0 50.5
      vertex -45.6699 7.5 49.5
    endloop
  endfacet
  facet normal -0.866025 0.5 0
    outer loop
      vertex -45.6699 7.5 49.5
      vertex -50 0 50.5
      vertex -45.6699 7.5 50.5
    endloop
  endfacet
  facet normal -0.866025 -0.5 0
    outer loop
      vertex -50 0 49.5
      vertex -45.6699 -7.5 49.5
      vertex -50 0 50.5
    endloop
  endfacet
  facet normal -0.866025 -0.5 0
    outer loop
      vertex -50 0 50.5
      vertex -45.6699 -7.5 49.5
      vertex -45.6699 -7.5 50.5
    endloop
  endfacet
  facet normal -2.22045e-16 -1 0
    outer loop
      vertex -45.6699 -7.5 50.5
      vertex -45.6699 -7.5 49.5
      vertex -4.33013 -7.5 49.5
    endloop
  endfacet
  facet normal -2.22045e-16 -1 0
    outer loop
      vertex -4.33013 -7.5 50.5
      vertex -45.6699 -7.5 50.5
      vertex -4.33013 -7.5 49.5
    endloop
  endfacet
  facet normal -0.866025 -0.5 0
    outer loop
      vertex -4.33013 -7.5 49.5
      vertex 16.3397 -43.3013 49.5
      vertex -4.33013 -7.5 50.5
    endloop
  endfacet
  facet normal -0.866025 -0.5 0
    outer loop
      vertex -4.33013 -7.5 50.5
      vertex 16.3397 -43.3013 49.5
      vertex 16.3397 -43.3013 50.5
    endloop
  endfacet
  facet normal 0 -1 0
    outer loop
      vertex 16.3397 -43.3013 50.5
      vertex 16.3397 -43.3013 49.5
      vertex 25 -43.3013 49.5
    endloop
  endfacet
  facet normal 0 -1 0
    outer loop
      vertex 25 -43.3013 50.5
      vertex 16.3397 -43.3013 50.5
      vertex 25 -43.3013 49.5
    endloop
  endfacet
  facet normal 0.866025 -0.5 0
    outer loop
      vertex 25 -43.3013 50.5
      vertex 25 -43.3013 49.5
      vertex 29.3301 -35.8013 49.5
    endloop
  endfacet
  facet normal 0.866025 -0.5 0
    outer loop
      vertex 29.3301 -35.8013 50.5
      vertex 25 -43.3013 50.5
      vertex 29.3301 -35.8013 49.5
    endloop
  endfacet
  facet normal 0.866025 0.5 0
    outer loop
      vertex 29.3301 -35.8013 49.5
      vertex 12.9904 -7.5 49.5
      vertex 12.9904 -7.5 50.5
    endloop
  endfacet
  facet normal 0.866025 0.5 0
    outer loop
      vertex 29.3301 -35.8013 50.5
      vertex 29.3301 -35.8013 49.5
      vertex 12.9904 -7.5 50.5
    endloop
  endfacet
  facet normal -2.22045e-16 -1 0
    outer loop
      vertex 12.9904 -7.5 50.5
      vertex 12.9904 -7.5 49.5
      vertex 45.6699 -7.5 49.5
    endloop
  endfacet
  facet normal -2.22045e-16 -1 0
    outer loop
      vertex 45.6699 -7.5 50.5
      vertex 12.9904 -7.5 50.5
      vertex 45.6699 -7.5 49.5
    endloop
  endfacet
  facet normal 0.866025 -0.5 0
    outer loop
      vertex 45.6699 -7.5 50.5
      vertex 45.6699 -7.5 49.5
      vertex 50 0 49.5
    endloop
  endfacet
  facet normal 0.866025 -0.5 0
    outer loop
      vertex 50 0 50.5
      vertex 45.6699 -7.5 50.5
      vertex 50 0 49.5
    endloop
  endfacet
  facet normal 0.866025 0.5 0
    outer loop
      vertex 50 0 49.5
      vertex 45.6699 7.5 49.5
      vertex 45.6699 7.5 50.5
    endloop
  endfacet
  facet normal 0.866025 0.5 0
    outer loop
      vertex 50 0 50.5
      vertex 50 0 49.5
      vertex 45.6699 7.5 50.5
    endloop
  endfacet
  facet normal 2.22045e-16 1 0
    outer loop
      vertex 4.33013 7.5 49.5
      vertex 4.33013 7.5 50.5
      vertex 45.6699 7.5 49.5
    endloop
  endfacet
  facet normal 2.22045e-16 1 0
    outer loop
      vertex 45.6699 7.5 49.5
      vertex 4.33013 7.5 50.5
      vertex 45.6699 7.5 50.5
    endloop
  endfacet
  facet normal 0.866025 0.5 0
    outer loop
      vertex 4.33013 7.5 49.5
      vertex -16.3397 43.3013 49.5
      vertex -16.3397 43.3013 50.5
    endloop
  endfacet
  facet normal 0.866025 0.5 0
    outer loop
      vertex 4.33013 7.5 50.5
      vertex 4.33013 7.5 49.5
      vertex -16.3397 43.3013 50.5
    endloop
  endfacet
  facet normal 0 1 0
    outer loop
      vertex -25 43.3013 49.5
      vertex -25 43.3013 50.5
      vertex -16.3397 43.3013 49.5
    endloop
  endfacet
  facet normal 0 1 0
    outer loop
      vertex -16.3397 43.3013 49.5
      vertex -25 43.3013 50.5
      vertex -16.3397 43.3013 50.5
    endloop
  endfacet
  facet normal -0.866025 0.5 0
    outer loop
      vertex -29.3301 35.8013 49.5
      vertex -29.3301 35.8013 50.5
      vertex -25 43.3013 49.5
    endloop
  endfacet
  facet normal -0.866025 0.5 0
    outer loop
      vertex -25 43.3013 49.5
      vertex -29.3301 35.8013 50.5
      vertex -25 43.3013 50.5
    endloop
  endfacet
  facet normal -0.866025 -0.5 0
    outer loop
      vertex -29.3301 35.8013 49.5
      vertex -12.9904 7.5 49.5
      vertex -29.3301 35.8013 50.5
    endloop
  endfacet
  facet normal -0.866025 -0.5 0
    outer loop
      vertex -29.3301 35.8013 50.5
      vertex -12.9904 7.5 49.5
      vertex -12.9904 7.5 50.5
    endloop
  endfacet
  facet normal 2.22045e-16 1 0
    outer loop
      vertex -45.6699 7.5 49.5
      vertex -45.6699 7.5 50.5
      vertex -12.9904 7.5 49.5
    endloop
  endfacet
  facet normal 2.22045e-16 1 0
    outer loop
      vertex -12.9904 7.5 49.5
      vertex -45.6699 7.5 50.5
      vertex -12.9904 7.5 50.5
    endloop
  endfacet
  facet normal 3.44509e-16 1 0
    outer loop
      vertex -48.7 2.5 44.1213
      vertex -48.7 2.5 45
      vertex -44.7 2.5 40.1213
    endloop
  endfacet
  facet normal 3.44509e-16 1 0
    outer loop
      vertex -44.7 2.5 40.1213
      vertex -48.7 2.5 45
      vertex -46.7 2.5 45
    endloop
  endfacet
  facet normal 3.44509e-16 1 0
    outer loop
      vertex -44.7 2.5 40.1213
      vertex -46.7 2.5 45
      vertex -46.7 2.5 49.5
    endloop
  endfacet
  facet normal 3.44509e-16 1 0
    outer loop
      vertex -44.7 2.5 40.1213
      vertex -46.7 2.5 49.5
      vertex -44.7 2.5 49.5
    endloop
  endfacet
  facet normal -1 3.44509e-16 0
    outer loop
      vertex -46.7 -2.5 45
      vertex -46.7 -2.5 49.5
      vertex -46.7 2.5 45
    endloop
  endfacet
  facet normal -1 3.44509e-16 0
    outer loop
      vertex -46.7 2.5 45
      vertex -46.7 -2.5 49.5
      vertex -46.7 2.5 49.5
    endloop
  endfacet
  facet normal 1 -3.44509e-16 0
    outer loop
      vertex -44.7 -2.5 49.5
      vertex -44.7 -2.5 40.1213
      vertex -44.7 2.5 40.1213
    endloop
  endfacet
  facet normal 1 -3.44509e-16 0
    outer loop
      vertex -44.7 2.5 49.5
      vertex -44.7 -2.5 49.5
      vertex -44.7 2.5 40.1213
    endloop
  endfacet
  facet normal -3.44509e-16 -1 0
    outer loop
      vertex -48.7 -2.5 45
      vertex -48.7 -2.5 44.1213
      vertex -44.7 -2.5 40.1213
    endloop
  endfacet
  facet normal -3.44509e-16 -1 0
    outer loop
      vertex -46.7 -2.5 45
      vertex -48.7 -2.5 45
      vertex -44.7 -2.5 40.1213
    endloop
  endfacet
  facet normal -3.44509e-16 -1 0
    outer loop
      vertex -44.7 -2.5 49.5
      vertex -46.7 -2.5 45
      vertex -44.7 -2.5 40.1213
    endloop
  endfacet
  facet normal -3.44509e-16 -1 0
    outer loop
      vertex -46.7 -2.5 49.5
      vertex -46.7 -2.5 45
      vertex -44.7 -2.5 49.5
    endloop
  endfacet
  facet normal -0.866025 -0.5 0
    outer loop
      vertex -26.5151 40.9254 44.1213
      vertex -24.5151 37.4613 40.1213
      vertex -26.5151 40.9254 45
    endloop
  endfacet
  facet normal -0.866025 -0.5 0
    outer loop
      vertex -25.5151 39.1934 45
      vertex -24.5151 37.4613 40.1213
      vertex -24.5151 37.4613 49.5
    endloop
  endfacet
  facet normal -0.866025 -0.5 0
    outer loop
      vertex -26.5151 40.9254 45
      vertex -24.5151 37.4613 40.1213
      vertex -25.5151 39.1934 45
    endloop
  endfacet
  facet normal -0.866025 -0.5 0
    outer loop
      vertex -25.5151 39.1934 45
      vertex -24.5151 37.4613 49.5
      vertex -25.5151 39.1934 49.5
    endloop
  endfacet
  facet normal -0.5 0.866025 0
    outer loop
      vertex -25.5151 39.1934 45
      vertex -25.5151 39.1934 49.5
      vertex -21.1849 41.6934 45
    endloop
  endfacet
  facet normal -0.5 0.866025 0
    outer loop
      vertex -21.1849 41.6934 45
      vertex -25.5151 39.1934 49.5
      vertex -21.1849 41.6934 49.5
    endloop
  endfacet
  facet normal 0.866025 0.5 0
    outer loop
      vertex -20.1849 39.9613 40.1213
      vertex -22.1849 43.4254 44.1213
      vertex -22.1849 43.4254 45
    endloop
  endfacet
  facet normal 0.866025 0.5 0
    outer loop
      vertex -21.1849 41.6934 49.5
      vertex -20.1849 39.9613 40.1213
      vertex -21.1849 41.6934 45
    endloop
  endfacet
  facet normal 0.866025 0.5 0
    outer loop
      vertex -21.1849 41.6934 45
      vertex -20.1849 39.9613 40.1213
      vertex -22.1849 43.4254 45
    endloop
  endfacet
  facet normal 0.866025 0.5 0
    outer loop
      vertex -20.1849 39.9613 49.5
      vertex -20.1849 39.9613 40.1213
      vertex -21.1849 41.6934 49.5
    endloop
  endfacet
  facet normal 0.5 -0.866025 0
    outer loop
      vertex -24.5151 37.4613 49.5
      vertex -24.5151 37.4613 40.1213
      vertex -20.1849 39.9613 40.1213
    endloop
  endfacet
  facet normal 0.5 -0.866025 0
    outer loop
      vertex -20.1849 39.9613 49.5
      vertex -24.5151 37.4613 49.5
      vertex -20.1849 39.9613 40.1213
    endloop
  endfacet
  facet normal -0.5 0.866025 0
    outer loop
      vertex 20.1849 -39.9613 40.1213
      vertex 20.1849 -39.9613 49.5
      vertex 24.5151 -37.4613 40.1213
    endloop
  endfacet
  facet normal -0.5 0.866025 0
    outer loop
      vertex 24.5151 -37.4613 40.1213
      vertex 20.1849 -39.9613 49.5
      vertex 24.5151 -37.4613 49.5
    endloop
  endfacet
  facet normal -0.866025 -0.5 0
    outer loop
      vertex 21.1849 -41.6934 49.5
      vertex 20.1849 -39.9613 49.5
      vertex 21.1849 -41.6934 45
    endloop
  endfacet
  facet normal -0.866025 -0.5 0
    outer loop
      vertex 20.1849 -39.9613 40.1213
      vertex 22.1849 -43.4254 44.1213
      vertex 21.1849 -41.6934 45
    endloop
  endfacet
  facet normal -0.866025 -0.5 0
    outer loop
      vertex 20.1849 -39.9613 40.1213
      vertex 21.1849 -41.6934 45
      vertex 20.1849 -39.9613 49.5
    endloop
  endfacet
  facet normal -0.866025 -0.5 0
    outer loop
      vertex 21.1849 -41.6934 45
      vertex 22.1849 -43.4254 44.1213
      vertex 22.1849 -43.4254 45
    endloop
  endfacet
  facet normal 0.866025 0.5 0
    outer loop
      vertex 25.5151 -39.1934 45
      vertex 24.5151 -37.4613 40.1213
      vertex 24.5151 -37.4613 49.5
    endloop
  endfacet
  facet normal 0.866025 0.5 0
    outer loop
      vertex 25.5151 -39.1934 45
      vertex 26.5151 -40.9254 45
      vertex 26.5151 -40.9254 44.1213
    endloop
  endfacet
  facet normal 0.866025 0.5 0
    outer loop
      vertex 26.5151 -40.9254 44.1213
      vertex 24.5151 -37.4613 40.1213
      vertex 25.5151 -39.1934 45
    endloop
  endfacet
  facet normal 0.866025 0.5 0
    outer loop
      vertex 25.5151 -39.1934 49.5
      vertex 25.5151 -39.1934 45
      vertex 24.5151 -37.4613 49.5
    endloop
  endfacet
  facet normal 0.5 -0.866025 0
    outer loop
      vertex 21.1849 -41.6934 49.5
      vertex 21.1849 -41.6934 45
      vertex 25.5151 -39.1934 45
    endloop
  endfacet
  facet normal 0.5 -0.866025 0
    outer loop
      vertex 25.5151 -39.1934 49.5
      vertex 21.1849 -41.6934 49.5
      vertex 25.5151 -39.1934 45
    endloop
  endfacet
  facet normal -1 2.22045e-16 0
    outer loop
      vertex 44.7 -2.5 40.1213
      vertex 44.7 -2.5 49.5
      vertex 44.7 2.5 40.1213
    endloop
  endfacet
  facet normal -1 2.22045e-16 0
    outer loop
      vertex 44.7 2.5 40.1213
      vertex 44.7 -2.5 49.5
      vertex 44.7 2.5 49.5
    endloop
  endfacet
  facet normal 2.22045e-16 1 0
    outer loop
      vertex 48.7 2.5 45
      vertex 48.7 2.5 44.1213
      vertex 46.7 2.5 45
    endloop
  endfacet
  facet normal 2.22045e-16 1 0
    outer loop
      vertex 44.7 2.5 40.1213
      vertex 44.7 2.5 49.5
      vertex 46.7 2.5 45
    endloop
  endfacet
  facet normal 2.22045e-16 1 0
    outer loop
      vertex 44.7 2.5 40.1213
      vertex 46.7 2.5 45
      vertex 48.7 2.5 44.1213
    endloop
  endfacet
  facet normal 2.22045e-16 1 0
    outer loop
      vertex 46.7 2.5 45
      vertex 44.7 2.5 49.5
      vertex 46.7 2.5 49.5
    endloop
  endfacet
  facet normal 1 -2.22045e-16 0
    outer loop
      vertex 46.7 -2.5 49.5
      vertex 46.7 -2.5 45
      vertex 46.7 2.5 45
    endloop
  endfacet
  facet normal 1 -2.22045e-16 0
    outer loop
      vertex 46.7 2.5 49.5
      vertex 46.7 -2.5 49.5
      vertex 46.7 2.5 45
    endloop
  endfacet
  facet normal -2.22045e-16 -1 0
    outer loop
      vertex 46.7 -2.5 45
      vertex 44.7 -2.5 40.1213
      vertex 48.7 -2.5 44.1213
    endloop
  endfacet
  facet normal -2.22045e-16 -1 0
    outer loop
      vertex 46.7 -2.5 45
      vertex 46.7 -2.5 49.5
      vertex 44.7 -2.5 49.5
    endloop
  endfacet
  facet normal -2.22045e-16 -1 0
    outer loop
      vertex 44.7 -2.5 49.5
      vertex 44.7 -2.5 40.1213
      vertex 46.7 -2.5 45
    endloop
  endfacet
  facet normal -2.22045e-16 -1 0
    outer loop
      vertex 48.7 -2.5 45
      vertex 46.7 -2.5 45
      vertex 48.7 -2.5 44.1213
    endloop
  endfacet
  facet normal 0 0 1
    outer loop
      vertex -45.6699 7.5 50.5
      vertex -50 0 50.5
      vertex -45.6699 -7.5 50.5
    endloop
  endfacet
  facet normal 0 0 1
    outer loop
      vertex 12.9904 -7.5 50.5
      vertex -45.6699 7.5 50.5
      vertex -4.33013 -7.5 50.5
    endloop
  endfacet
  facet normal 0 0 1
    outer loop
      vertex -4.33013 -7.5 50.5
      vertex -45.6699 7.5 50.5
      vertex -45.6699 -7.5 50.5
    endloop
  endfacet
  facet normal 0 0 1
    outer loop
      vertex 25 -43.3013 50.5
      vertex -4.33013 -7.5 50.5
      vertex 16.3397 -43.3013 50.5
    endloop
  endfacet
  facet normal 0 0 1
    outer loop
      vertex 29.3301 -35.8013 50.5
      vertex -4.33013 -7.5 50.5
      vertex 25 -43.3013 50.5
    endloop
  endfacet
  facet normal 0 0 1
    outer loop
      vertex 12.9904 -7.5 50.5
      vertex -4.33013 -7.5 50.5
      vertex 29.3301 -35.8013 50.5
    endloop
  endfacet
  facet normal 0 0 1
    outer loop
      vertex 45.6699 -7.5 50.5
      vertex -45.6699 7.5 50.5
      vertex 12.9904 -7.5 50.5
    endloop
  endfacet
  facet normal 0 0 1
    outer loop
      vertex 50 0 50.5
      vertex -45.6699 7.5 50.5
      vertex 45.6699 -7.5 50.5
    endloop
  endfacet
  facet normal 0 0 1
    outer loop
      vertex 4.33013 7.5 50.5
      vertex -12.9904 7.5 50.5
      vertex 50 0 50.5
    endloop
  endfacet
  facet normal 0 0 1
    outer loop
      vertex -12.9904 7.5 50.5
      vertex -45.6699 7.5 50.5
      vertex 50 0 50.5
    endloop
  endfacet
  facet normal 0 0 1
    outer loop
      vertex 45.6699 7.5 50.5
      vertex 4.33013 7.5 50.5
      vertex 50 0 50.5
    endloop
  endfacet
  facet normal 0 0 1
    outer loop
      vertex -16.3397 43.3013 50.5
      vertex -25 43.3013 50.5
      vertex -29.3301 35.8013 50.5
    endloop
  endfacet
  facet normal 0 0 1
    outer loop
      vertex -16.3397 43.3013 50.5
      vertex -12.9904 7.5 50.5
      vertex 4.33013 7.5 50.5
    endloop
  endfacet
  facet normal 0 0 1
    outer loop
      vertex -29.3301 35.8013 50.5
      vertex -12.9904 7.5 50.5
      vertex -16.3397 43.3013 50.5
    endloop
  endfacet
  facet normal -0.707107 2.43605e-16 -0.707107
    outer loop
      vertex -44.7 2.5 40.1213
      vertex -44.7 -2.5 40.1213
      vertex -48.7 2.5 44.1213
    endloop
  endfacet
  facet normal -0.707107 2.43605e-16 -0.707107
    outer loop
      vertex -48.7 2.5 44.1213
      vertex -44.7 -2.5 40.1213
      vertex -48.7 -2.5 44.1213
    endloop
  endfacet
  facet normal 0 0 1
    outer loop
      vertex -48.7 2.5 45
      vertex -48.7 -2.5 45
      vertex -46.7 -2.5 45
    endloop
  endfacet
  facet normal 0 0 1
    outer loop
      vertex -46.7 2.5 45
      vertex -48.7 2.5 45
      vertex -46.7 -2.5 45
    endloop
  endfacet
  facet normal -1 3.44509e-16 0
    outer loop
      vertex -48.7 -2.5 44.1213
      vertex -48.7 -2.5 45
      vertex -48.7 2.5 44.1213
    endloop
  endfacet
  facet normal -1 3.44509e-16 0
    outer loop
      vertex -48.7 2.5 44.1213
      vertex -48.7 -2.5 45
      vertex -48.7 2.5 45
    endloop
  endfacet
  facet normal -0.5 0.866025 0
    outer loop
      vertex -26.5151 40.9254 44.1213
      vertex -26.5151 40.9254 45
      vertex -22.1849 43.4254 44.1213
    endloop
  endfacet
  facet normal -0.5 0.866025 0
    outer loop
      vertex -22.1849 43.4254 44.1213
      vertex -26.5151 40.9254 45
      vertex -22.1849 43.4254 45
    endloop
  endfacet
  facet normal 0 0 1
    outer loop
      vertex -22.1849 43.4254 45
      vertex -26.5151 40.9254 45
      vertex -25.5151 39.1934 45
    endloop
  endfacet
  facet normal 0 0 1
    outer loop
      vertex -21.1849 41.6934 45
      vertex -22.1849 43.4254 45
      vertex -25.5151 39.1934 45
    endloop
  endfacet
  facet normal -0.353553 0.612372 -0.707107
    outer loop
      vertex -20.1849 39.9613 40.1213
      vertex -24.5151 37.4613 40.1213
      vertex -22.1849 43.4254 44.1213
    endloop
  endfacet
  facet normal -0.353553 0.612372 -0.707107
    outer loop
      vertex -22.1849 43.4254 44.1213
      vertex -24.5151 37.4613 40.1213
      vertex -26.5151 40.9254 44.1213
    endloop
  endfacet
  facet normal 0.353553 -0.612372 -0.707107
    outer loop
      vertex 26.5151 -40.9254 44.1213
      vertex 22.1849 -43.4254 44.1213
      vertex 24.5151 -37.4613 40.1213
    endloop
  endfacet
  facet normal 0.353553 -0.612372 -0.707107
    outer loop
      vertex 24.5151 -37.4613 40.1213
      vertex 22.1849 -43.4254 44.1213
      vertex 20.1849 -39.9613 40.1213
    endloop
  endfacet
  facet normal 0 0 1
    outer loop
      vertex 25.5151 -39.1934 45
      vertex 21.1849 -41.6934 45
      vertex 22.1849 -43.4254 45
    endloop
  endfacet
  facet normal 0 0 1
    outer loop
      vertex 26.5151 -40.9254 45
      vertex 25.5151 -39.1934 45
      vertex 22.1849 -43.4254 45
    endloop
  endfacet
  facet normal 0.5 -0.866025 0
    outer loop
      vertex 22.1849 -43.4254 45
      vertex 22.1849 -43.4254 44.1213
      vertex 26.5151 -40.9254 44.1213
    endloop
  endfacet
  facet normal 0.5 -0.866025 0
    outer loop
      vertex 26.5151 -40.9254 45
      vertex 22.1849 -43.4254 45
      vertex 26.5151 -40.9254 44.1213
    endloop
  endfacet
  facet normal 0.707107 -1.57009e-16 -0.707107
    outer loop
      vertex 48.7 2.5 44.1213
      vertex 48.7 -2.5 44.1213
      vertex 44.7 2.5 40.1213
    endloop
  endfacet
  facet normal 0.707107 -1.57009e-16 -0.707107
    outer loop
      vertex 44.7 2.5 40.1213
      vertex 48.7 -2.5 44.1213
      vertex 44.7 -2.5 40.1213
    endloop
  endfacet
  facet normal 1 -2.22045e-16 0
    outer loop
      vertex 48.7 -2.5 45
      vertex 48.7 -2.5 44.1213
      vertex 48.7 2.5 44.1213
    endloop
  endfacet
  facet normal 1 -2.22045e-16 0
    outer loop
      vertex 48.7 2.5 45
      vertex 48.7 -2.5 45
      vertex 48.7 2.5 44.1213
    endloop
  endfacet
  facet normal 0 0 1
    outer loop
      vertex 46.7 2.5 45
      vertex 46.7 -2.5 45
      vertex 48.7 -2.5 45
    endloop
  endfacet
  facet normal 0 0 1
    outer loop
      vertex 48.7 2.5 45
      vertex 46.7 2.5 45
      vertex 48.7 -2.5 45
    endloop
  endfacet
endsolid OpenSCAD_Model
